<mxfile host="app.diagrams.net" modified="2023-11-24T10:14:53.949Z" agent="Mozilla/5.0 (Macintosh; Intel Mac OS X 10.15; rv:120.0) Gecko/20100101 Firefox/120.0" etag="eQtDvByADbal-nxSpgtq" version="22.1.3" type="google">
  <diagram name="Page-1" id="lIW45LLTyiIgbAKLk2yb">
    <mxGraphModel dx="1010" dy="590" grid="1" gridSize="10" guides="1" tooltips="1" connect="1" arrows="1" fold="1" page="1" pageScale="1" pageWidth="850" pageHeight="1100" math="0" shadow="0">
      <root>
        <mxCell id="0" />
        <mxCell id="1" parent="0" />
        <mxCell id="HcRGdp-QQwa-oywtqrRt-1" value="Timestream" style="sketch=0;points=[[0,0,0],[0.25,0,0],[0.5,0,0],[0.75,0,0],[1,0,0],[0,1,0],[0.25,1,0],[0.5,1,0],[0.75,1,0],[1,1,0],[0,0.25,0],[0,0.5,0],[0,0.75,0],[1,0.25,0],[1,0.5,0],[1,0.75,0]];outlineConnect=0;fontColor=#232F3E;fillColor=#C925D1;strokeColor=#ffffff;dashed=0;verticalLabelPosition=bottom;verticalAlign=top;align=center;html=1;fontSize=12;fontStyle=0;aspect=fixed;shape=mxgraph.aws4.resourceIcon;resIcon=mxgraph.aws4.timestream;" vertex="1" parent="1">
          <mxGeometry x="260" y="230" width="78" height="78" as="geometry" />
        </mxCell>
        <mxCell id="HcRGdp-QQwa-oywtqrRt-2" value="&lt;div&gt;Grafana server&lt;/div&gt;" style="outlineConnect=0;dashed=0;verticalLabelPosition=bottom;verticalAlign=top;align=center;html=1;shape=mxgraph.aws3.ec2;fillColor=#F58534;gradientColor=none;" vertex="1" parent="1">
          <mxGeometry x="260" y="70" width="76.5" height="93" as="geometry" />
        </mxCell>
        <mxCell id="HcRGdp-QQwa-oywtqrRt-7" value="Balena fleet, VPN" style="swimlane;whiteSpace=wrap;html=1;" vertex="1" parent="1">
          <mxGeometry x="480" y="50" width="250" height="290" as="geometry" />
        </mxCell>
        <mxCell id="HcRGdp-QQwa-oywtqrRt-11" value="" style="group" vertex="1" connectable="0" parent="HcRGdp-QQwa-oywtqrRt-7">
          <mxGeometry x="50" y="40" width="147.40999999999997" height="60" as="geometry" />
        </mxCell>
        <mxCell id="HcRGdp-QQwa-oywtqrRt-6" value="" style="html=1;verticalLabelPosition=bottom;align=center;labelBackgroundColor=#ffffff;verticalAlign=top;strokeWidth=2;strokeColor=#0080F0;shadow=0;dashed=0;shape=mxgraph.ios7.icons.bluetooth;pointerEvents=1" vertex="1" parent="HcRGdp-QQwa-oywtqrRt-11">
          <mxGeometry x="66.56999999999994" y="15.599999999999994" width="15" height="28.799999999999997" as="geometry" />
        </mxCell>
        <mxCell id="HcRGdp-QQwa-oywtqrRt-8" value="Compute Board" style="shape=image;verticalLabelPosition=bottom;labelBackgroundColor=default;verticalAlign=top;aspect=fixed;imageAspect=0;image=data:image/png,iVBORw0KGgoAAAANSUhEUgAAAL4AAADwCAYAAAC+Jt6BAAAABGdBTUEAALGPC/xhBQAAACBjSFJNAAB6JgAAgIQAAPoAAACA6AAAdTAAAOpgAAA6mAAAF3CculE8AAAABmJLR0QA/wD/AP+gvaeTAABFfElEQVR42u2dd7gcZfXHPzPbd28vuSU3/ab3EEiooUpVmoCCoogdRSkqgoBYUFHsYoMfoCKioHTpvSSQ3ntyW26v23en/P6YDaZsmdmdbUm+z5MHnruzszPvfN93zjnvOd8jcOhABBYD8wAfsB1YBsgcQSZojo1rObANeA2IHBmW7GMq8FPgfaAN2AG8AvwIOAYQgLOATYB6wL/O2Heb45zXeWRoAXDExnBfVABfAZbGGdM+4MuxhWYicD3wNLA59nzWA/cDpx8Z2vRgA+4GpDiDv++/LkBJcYwCPL/PBArE/j4MPAocfZiNbRPwa6A9Ng5RYCvwR+D/AH+K8dy7qKQ65nmg7giV42NC7CFsBsL7EFLPwJr1TwEej5lJANWx1WxsnNWwmFAXu4/RsfuoA34BBHM4tkNAd+z/ZaAV+AdwwuFM+tMBbw4fgp4JMHjA3waB+xKYS4WIMuC7QMsB9xHc501XKGN9c74GKdurmQgsAY4HZgENgCf2AIaAU4CSIiFUALgGeKCAr3FhzHQbV0SL3/OAPTZhw0BvzOxaCjwXG/eigQB8Edidj9WkrMaWzVXqGwU65kuy9fYURNSSKms+3grDMT/P9MXRkoUH4AGeAa6NRQdMg9Nj4dRP19E41YXVJuIflpAl9aDjykfZ+fDXGpGiKv0dYW0ID5yZInH/rmNCnxF7IEsLiPTHAf9NlyCJxsLuEpl/ViXHf7SGzW97kaIHH+SptDJpQQlzT6+godlFx5YgqmrafTmAY4GPx94MfYVk6liB+lgkQAAeBM5L9wEIgoAiJx45d5mFS24Zw6jxTqSoyo7lPja8Ocyu1f79vrfo/GpOuryW7p0hXri3i64doQMmh425p1XwzmN9SBHDT0oFXo9FnBwxh+3rZj6YFON9M1oI1x/72zExU8EQSiqtLDq/mtf+1nPQAjLtuDJOvXIUnkorD9/eQvvm4H4TYuriUmaeVE7TdDeCAJveHuHZ33UmfXZWu5DOWO9FS8wn7EcLRQ9nYgalS3wX8AXgQuCo2CpvyjQ89qIaZhxfRl97mM7tIfZsC9K1I7jfgLlKLVz10wl4Kq0f/G2oO8rSf/ex4c0RFFmltNrKF+/R/FFVheVPD/DGw737PZirfjYBi1XgiZ930Nsa3j+W6hCRJTXpgzwAncBVsZUpW2gG/oq2oaRvyXSLhAPKQX+furiUM7/QwKa3Rnjxvq79xvacaxqYOL/kg3H987U7PjjXUedUsfCcShye/xkLu9f6efRHbaj7/IyzxMLoKS4aJruon+SkvMbGGw/3su19r1ljIaHtGbwI/BLYk21TZyLwBvCJmBNlN/PJtm8KUF5rY86pFYyf42H2yeUcfV41TdPcOEssjPRLBIZlRo13UjvOsd9ANx9dytRFpfS1R6hucjB1cak2nwQYPdXF2Jludq3xEw0pIMDCc6qobLAzc0k5Q91R+tr+R/7yWhtnf6mB7ct9eslfClwRG49Xs0D6C2KTaqLeL5TX2vjIdaNZ/9rwfovLSR+v5bRP12G1C/S2hdm+3AdAQ7OTS28dS/0k1/8WAKfIprdHmHxMKRd9awwT55dgtYv7/c57Tw7QtSNETZODeR+qZMkVtZz6qTpmnFjGmOluKursvPCnLjNJvzdwUh8LnHwWWI22W5+VFd8e+4HphuJrNTaaF5ZQ1WjHVWpBiqqEvDJBv8zgngh7toXw9kf/d0cWgS/eMwlPhfVgG0OB1o1+Rk9xY7ULCQ0RKarG/XykL8q/f9LOqPFOzrmm4X9fUeGFP3ex9uWhD0yqa/48mT3bgjz2o3ZCfkOZD79H2/lUTHrIn0DbDbXq/ULtWAeX3DyGSEjh3q/v/GABOPPz9cw+9X+ulxxVefBbu6gZ4+CcaxrjjpkUUROPNTDcGyUcUBi1z0K0L7a97+Xxn3X8j3QCVI120NjspLTGhqvEgrPUAioERiT6WsNsWeolEjI0fAFgAbBFr71oBJcaJT1A0CszdXEpTdPdCY/xD0q0bAiwY4WPnpbQQavKvn7AuFmelNM50YMqq7Fx+ffGaQ7dvl8R4MzP1aNIKutfH6a02gZA42QXF3+7iX/9oM3Ig/hSzNG8isxzhT4fm0ii3i9UNdq59DtjcZdbsAUVRIvmN53x2f1JD2CxCVx221jc5VYEIbFtnurNkjTaUWGlos7G+LkeJi0ooWmaG7sr8e2sfG6Qda8PGx0nN3Aj8LlsrPj/ib1yDcPuFPnoLWMYPcVV0HFYOary6I/aOOqcKpoX/i9I0rohwGM/aosb2UiCnwLfzOByPoy2o6yb9GW1Ni6/Y+wHExfgzUd6iQQVTvt04WcPrH5xSPM50vOBB9B23U0n/nvEy2sRwOmO7y6IFi0KIFoEympsnH/96KSzvSCgxh+ZLe96eepXHR+E6+omOFFV6NkdSna2TwF/SeMqZgHvxHyHuJh+Qhnb3vN+4Pg7PRYu/95Yqpscuu+pkNDXFua/v+8k5NNekiFf/DesoqhEggnfviX7RLtMI/6rwMkH/nHyMaVccMNoDge8//QAr/21B4DjPlrD/DMr+fttLQx2JszUDaPlpSw38DPlwMpkjuzEBSVceONoHr2znZb1fixWgYu/3ZTaDDwEEA0r/OWm3QzsOWjMo7EIY1SPZ2wEG+M6L+952fjmyGFB/KPPq2LB2ZUATJjrwV1m4eKbmnCXJwyQOdD2NhwGfubnyUjfONnFR77eiGgRGD/XAwKcc03DYUF6gFf/0hOP9KDVC0T1nMNoODMMXJkoDDn7lApsDvGQH/gJc0twuEWmHqvtGblKLIyd6WHjG8Mo8d/AtbGxflnH6U+PET/u27iizsZlt43FETMtq5vsVNXbmXlS+WFB+vbNAV66vzvRx39AZyjZKPF3A5fHcyCkiErIp+znEB6qEARoPMBJL6m04i6zsmOlL9HXjgWeREvRTRaZeIEEqR6iReCibzZR1WjfJ+IiUjfh8KipURX494/bCYzIiTyzT6Ht6KaE0eV5IjAm0YfrXx9muDfK4Yq5p1cw7biEmQNWtFz4ZLgerQYgLo67uPqgCXc4YcvSEfraw8n81ZP0nsso8X9JkpI9RVZZ/vQAhzPOuLpuv1SKA3AK8KEEn9WSJPOzaZqLxRfWHNZju+zx/lSH3IXORD0jxJ+OjuSzjW+NGMlvOeTgLLHwoc/WJzvkhwn+fhMJEs3sTpFzv9J40Kbb4YTe1jA9LeFUh9WjpY2YSvxT9BwU8sm0bUwzaU7VQlXFjuaFJUxckHDhWRhnLCtIsuO4+KJqylLsjhYDDKYg7B+ueU93no+uIncjKQuVcU9gEzjq3CoCIzLBEQkgbo68Pq9Rc5LbNviIRlQmzvcUbZTo1CtH0bLWn2gsvnFA9OFLJNioqmyws/DcqqIlu39YYvcaP6XVNhqa03fC7S6RiQtKsNkF3GVWZEll7StD8Q6tMJv4u+P9UYqqVNbbOenj5oTTXKUWJi4oYaQ3ypv/6MU/JDPjxDImzPUgWoqn7ruywc6sk8tZ81Lch3MWWorx9thb94uJznP8JTVYrMVV7y5FVHas9LF1mZfKehsLz6vC6cms5mnhuVX7LQD//X2nIZ4eCCNX041WVXXQZGnfHGT68WUfxJbNgMNjYcK8EqpH21n530Fe+UsPwRGZijp7xoOYK4wa72DVC0P75anvE4HwoukDnYGWyXkQqkfbOeOz9QmTxwoN3TtDvPNoH8/9oQurXeCkj9fSvLA0YcJhumjdEOC1v/Qk+vh76MjQNMIgP5pMxcJ4M7xzW4hpx5ZhsZn7lNzlVqYeW0bDJCfrXh3m9b/30LkjhN0pUllvL2hSONwWhrqj9OyO65RNAH4Ve1Cz4x2w5BOjCj5GHwkqrH99mBf+3MW7j/VR2Wjnw18bzcyTyrOSkzXQEeGxn7QRDcU1ITeiVcKltLWN0qYGWIumlnAQGie7+OjNY3C4s2eXb13m5fWHehjqjlJSZWXOqRXMO6Mibu5+IaBze4i/3bI7WcDgyXj2vbPEwpd+35wyJTifUZZVzw+y6e0RIkGFpuluTr1yFHUTszdR+9rC/PP7bfiHpXgfK8BpaBKHppo6oCX795MgNdk7ILF7nZ9JR5VkLQOzusnBvNMrsbsstK73s3uNn5XPDzLUHaWizo6nvLAmQGmVle3LffiH4j6s+STYsJp7egWTjiqwXXAVdq3x89J93bz2UA/dO0OUVls58wsNnPyJUZRUZm/s92wN8uiP2hLt2gL8jdQbhGkTH7TiikUJ7aFBiS3vjjB2pjtrq7BoERg91cXsUyuIhhW6d4bp3hVi9YtDdGwJ4i6zUllnL5g03KBXpnVD3BBvwoD/yVeMKpgQphRVWf/aMM/8rpMVzw4w1B3F4RY58bJazrmmkdqxjqz+/qa3Rnji7g7CQSWV9fIHvedMhxrvoqPY2emx8IkfjqOywZ71B9PXFua1v/awa41/P8dw0QXVzDihPO8bP31tYe6/cZehyNY1f5qc9+uOBBVW/neQFf8d+GClFS0Cc04r5/hLanGXZT/IsGWpl6d+2aFHskSJmYy6NpHSWZLjLkMNzS6aprvo3hUi5FOoarSnH8836niMcfDRm8ewY4WPlx/oZrgnSn9HhGd/18m7/+7n2IuqmX58Wd7CoTVjHLhKLQS9+qoQm6a580r6SFBhxX8HWf7MwAdFIdp1uTj96vqsr/D7kc0hMH6OB/+wTEmllcYpLlbuMxH3NQSMWDDpMOFvxNkWFi0Cn7xzHKPG5zcKEQ0rLH28n/efGkDep0ywst7O4ouqmXFCfibAo3e27fdGSoYTL6tl8UXVOb/GcEBh5X8HWP7M4H7F9e5yC0uuGMWsk8rzbj6ufnGIF+/tivdRB5oKdNZsfIDLDvJ7VGjbFGDmCWWmx22NwGIVGDfLw7RjyxjYE2GoW8sWDflktr/vY/PbXtzlFmqaHDl9iD27w+zZGtR17FHnVO2Xepx1Gz6i8v5TAzz5iz3sXO3/oK5YEGH+GZVccONoGie78k76npYwT/1yT6JcsAfR1OSyRvytwMXAqHhOXPvmINOOK8v7bqOr1MLMk8qpaXLQsTX4QY1myCezdZmXXav9VDc5KKvJjQPZvTtEyzp9OUxHnV25X7F41oI0quY4Pn53B1vf218isKHZyYU3NjHntIq8LmR7MdQd5ZHvt+5neu1rnQGfRFO2zhrxVbRY/ifjfd/bL9G9K8SUxWUFkWJQM8bBnFMrCPpkuvcpCvcNSKx7dZi+1jB1E5y4SrPrqA10RNixwqfr2GM+XI0ry45j64YAT/6ig1XPD+6ntGZziCy5vJYzv9BASVVhhIa9/VH++f1WvH1SokNuQevKQjaJD5pWpB84M+7s7IqyZ2uQKYtKCyLPxGoTaD6qhKapLto3Bfd70P0dEVa/OETIpzB6qsv0nee9aN8c1G3jzzm1PGuh4KHuKM/e06nlQQ3uT6Sm6W4++u0mJi0oKZgd8cHOCP/4XhvDPQkLnJ4mQcpHNogPmlrwCSQoih7uidKy1s+URaUFk2FZUWdnzmkVqAr72duqCp3bgqx/bRh3uYVR48x30Hes9NG+SZ+NP2VRKRV15tr4iqyy6vkhnvh5x35SiXtX+RMuq+HMLzRk/c1nBP3tYR75fhve/oQr/QDa7ncwl8QHTVltSqIPfYMSO1f5mXJ0acFo6VisAuNmexg70037pgAh//9W/2hIYdv7Prp2hBg9xWVqMtyaF4fob9fXLLCh2UVDs3klhu2bAzz2kw42vDF8kGM4dqabS24ew6SjSgoq72nPtiD//H7SnVrQVOpuT4sHGV7fl4mz5V5ea6O02obdJeIus+IqteQ09qsHZbU2Zp9cgbc/epBS8mBXhLWvDGtF5ZNdCGJmjFBVeOm+bt0S2RarwPTjyzK+x6BX5uX7u3n5AS2zdV+IFoETP17Lhz7fgLOk8LJd17w8TNArY7MLlNXaUWQ13vjZge+Thu5apnP8KeKUI7rLLFx221hqxjgoBmx8a4QX7+2Kq85VN8HJuV9piK9OpnfF3RTg4e+26j7e7hL54j3NGSX77Vzp47k/dsXNEapssHPeVxupn1Qc6gyb3xnhmd/G1d73oolvGSZ+plN9EnDqgX+MhlW2LvMyfk5JwWZN7ovasQ6mHVtG1/YQ3oH9ieIfklj32jB2p4XG5vRi2S/8ueuD/QQ9kCUVu1NMKrKbCJGQwsv3d/PqX3s0OfQDMOvkci78RhPlo4qjlHHTW0kbTrxJevKMGRN/V8zcscYj/6a3Rqif6DTdUcsGnCUWZi0pJxpS2bMteIBjqGUldmwOMnaW21DBTct6P2//03ijlN7WsJbT7tS/6u/ZGuTRO9vZvfbg6JHVLnD2lxo57uLiqeh678l+XryvO14hz158G9iQD+KPxMylUxKtXJvf8eIqtdAwqfD1YARRYMJcD5UNdnav8R+0ygz3RFn32gjltTZdZpxvQOLRH7anVUAvRVQ6d4SYeWJZSh9DkVXe+lcfz/2hM24+UFmtjUtuGcOEucUhMShHVV68r5v3nkgqVfNSjPjkg/gAb6FVE81N5NjtXOVnYE+ECXM9WYuTm236TJzvYfca/0FtdOSoZsaFfDLjZnsQE5Ay6JX590/aGeyKpL+q9EXx9UtMXFCSkPyBYZn//LSdDW+MxLV0x85yc+l3xhbFWxe0fYZHf9TGzpVJN/vWAOeTQQ8sM4ivAk+gxVJPS+Qw97WF2brUy6gJuUsTyASeCiszTiync3uIkTjqcJ3bQ7SuDzBh3sFFN/0dER75Xit97ZGMr6Nnd5jObSGtdvWARWPP1iD//GErvQn0ZhacVcm5X2k0ZC7lDSqse22YJ+5uT7ZZBZrE4jkYSE/IFvH34m3go8TJ4dmLkE9mQ6zTxZgZ7oJ/FjaHyPTjyxjojMSNwXv7Jc2PmeSkvNaGLKmseHaQZ367B/+QbNp1DHVH2bJ0hLIaG9WjNRNr1fODPP3rPfvtQ+wbq1tyxShO/FhtxqHYXECRVR6/u4P3ntw/ozYBjkPbuMrMrDX5HpajdUHcDzVNDhacXYnNIeIut9A42VX4zSEOMNde/Us3K56Nv8iIFoEFZ1WyY6UvmU6+KRg3y4OrzMLmd+LLslusAmd9qYEZJ5RRTPAPSnTtDBH0ykSCCm/9q49w/L5jZWhhzIxg9s7FMWgNuPa3Q0dkPBVWjvlIFVUN9qKw8/dbHQSYMK8Eq12gZX0g7sTYsy2YKHPQVAz3RA9KOdgLu1Pkwm80MfnoUooNdpdIVaMdT6WVtx/pS+Qb7URrr0ShET+C1qHvIHTvCtG2KcjYme6i0cU5EE3T3NidYtxwYb5htQtcfNOYom4O0b45wGM/ak84sYE/xaI5BUf87WihzfGJohRrXtIElhqnuBJGRAoZo6doZlohkd9iFbjg+tGMn1OcpA/7Zd54uJcX7+2O24w6hkHgY6SRkJYL4oOmCXkFCbqdKzK0bQyw7T0fJZVWqhsdBd+ULB75FUndr819Ps2w829oKjwpEh2Qoiqrnh/kyV/uoXV9IEXMhyuBFaa9IbNwPy1obSr/SwKhWYC+9jCP391B7VgHx15c80EX8mJBoWz5qyo5UbIw+5q3LvPyxt979KRyKMA1wKOmviWzdG8daAUCp5Oi72hgWGbLUi8ta/1U1NtTNgsuFLzxcK+h/JtswlNuKYrwMCpsWebl8bs7WPPiUPxQ7P7worWe+pvZl5LNmOIGNJ3NP6Mjey7kl7VOdkXQU8I3ICUSiMoLNr49okd3Ju+IhBR6doX06uS/jRYh/E9WTMQc3fOdxMmrcJVa+NDn6hk/11Mcu4sxvHRfN6teGCyoazrv2kZTcvhzhZBPZvULQ7z9aF+8zMt30ar7stYlJFdxxRHidPyQIipblnoZ6opQWW8vihTmoe4oz/2hM1nGYF7Q2xpm3hkVBb9Tq6qwa5VWK7DxzYRvql/HVvzsBQVydL8iWqhzQrKDmqa5mX+mJpZaiJ1QFFnlH3e00rElWJCkOuYjVSy5YlRBXpt/WGLz2yOsen4oVeKeDEyL8aXoiU/MSXlIz4FWu8CEeSVMWVTKpAUlWZUdN+rQ6ui8lz8IcPG3mpg4vzBCm97+KNve87FlmZeOLQG9b8k/AV/IwVDlFL/BoBTE3uLwo86pzOsGzfJnBng1cReOgoHNIfLRbzelVb1lFla/OMT614bp3BE0GqxYhpbhm/XdwVznDjyHtvN2Ajr3EFQFVFVlwVmVuPJRFK3Csif7ef2h3qJwGhVZZetSL/WT8lf5FhiWWP3ikFHR4L+iSVPmZEs8H0kzbwOPAC5gZrIJ4Km0csbVdZx+dX1eGj5EggpP/3oPK58bpJggSyqb3tayN5umu3MuG1LZoOkXOdwW9mwNoijJlhWejwU+foGW65UrqzCvKAXORusDNTUu+SuszDypjPFzPdRPdOXM3t/yrpdX/9qdTMyoKNDQ7OKMq+uy2qJnPyd2UKJ9S5Bdq3xsftebqOwyBNwIPI622ZkPd6ggcC1aI7SUcJVaKB9lo3yUDU+5ptnjLrNS2WBj9FR3xj2jdq3xs/Q//bRvCnCoQBBgxonlHPORqowlXwLDMnu2BRnpjRLwygS9Er4BieGeKEPdUb31xf8BLspzHKAgUAVsi/03bUxdXMpHrhud1sPc/M4Ia18ZOkhc6pCCABPmepi1pDzWhtPY41dklT99dSfe/oxTNU5BZ5O2Q534oMkRPkyaaRQVdTYuu22srnpeWVLp2a3VzO5a46djSzCRbsshC7tLZNxsDxPmehgz3a3p8etgQ+v6AP/5abvetIN4+B1piLweysQHuAQtt0d3m3RBhJknlXPCpbWUVluRoipSRCHsV5CiKv6h2Gu4J8JwT5TBzgi9rWE9tZ2HFRxukVHjnVTU2SgfZf/AnHSXWrDaBWxOEbtTRBAFenaFeO1vPUbzlRTgJ8B3yGIqQrESH6AW+BrwabSG0ocGsQSRBtFFneikSnR88FpTAb8q0a9E6FZC9CkhDrEp6UNLKf4ZaYo/HS7E3wsRrXD97FgEoKgS9t2ClaNslRxtrWa6tYyxFg8WHcPtUyW2yV7WRodYLvWzWfKiFudU+DPwGPAGJlVNHS7EB2gG7gHOKIYnLSKw2FbNGfYGFtursZmQ9d2rhHgu0snz4U66lFAxEX9XzJZ/tkD9/IKEDbgeuAMoeMllKyLnORq52DmGBjE7UokqKquig/wn3M670b5imgBPo+mrth0hfnIcg1ZxM7kYnuoCWxXXuCYzzpK7PKJN0gh/DG5nvTRULOQfBr4OPHCE+PGv5VrgLjTB/zReEyJjLW7GW0poEJ2UCjZKRCulgg0FFVlViaAQUmX6lDDdSoguJUSb7GdYNRabHmNxc41rCgttVXkZLBV4I9LDH4Pb6THBBLIiIqNm25/4a2z19x0hvoZy4F40CULdsAsis60VLLRWsdBWpduBPBAKKl/1rmCLNKLr+NPt9XzdPRWnkH99IL8q8dvAVl6MdCU9rkKw8yFHPY2ii/pYdKlCtOMSRKz7+CJ+VcKrSgwrETqUILtkHy2yn83yCAOKKak0W9CS0dYc7sSfi9ZZZYzeL0yzlnGefTQn20eZRr5rvMtTEt+GyOfdzVzoaKLQ8Gx4D78ObEVKECK/2jWJjzvHZfQbO2Uf70f7WRbtZ500lMm7IQh8Fvh7vsYr30vWh9BkSHSVDR1vq+Xmkpl80jmBZmspVsGchLV10hB/D+1OeoxTsPCT0nkssRdmhdNkaymzbOW8Ge1FikPJUtGW8bVXinZmWSs409HAKfY6bIJIuxwgbHw/yoaWqxNGk5k/rIh/Npq8eEqvcKa1nO94ZnGpcyzVorlBHhWV7/rW069Gkq703y+ZwzxbZUF7kPWii7nWSl6N9iAfQP5WOcAiWzU1Jo1fuWhjoa2KCxxNuAUrW2QvUWMTQECTnylFk/4+LIh/HlqGniOVDX+VayI3eqYxSsxOWu3fQy28HOlO8nQEbiuZxSJbTVGET0aJTsZZPLweObhwpk0JcKajHsFEC9cqiMyyVnCOo5GQKrNVNixkfFwsmPHKoU78hWix3aQB74mWEn5cMo8T7LWmPqh9sUoa5Gf+zUlt1Y85x3FBAdr0yTDW4sGnSmyS9/dZepQQoiAw12r+m8spWFhkq2G2rYLV0iAB1ZBy9IlomvfvHarEH4eWjpp05BfaqvhxyTxqxeztXfUqIb7lXUOQxA+oVnTyXc9sLELxidvOsVbwQqTrIAKulYaZYS2n0ZKdjbYG0cWHHA3skv10KIYyFT6E1l9h26FGfGtspZ+W7KDT7PXcWjILh5C9Siu/KvFN32o6UzyYK53jmW2roBhhFUREQeD96MHNQ96L9nO8rZYyMTtyjQ7Bwsn2OnqVMDtk3SF7Ea3Fzz/QNryyilzqdtwRs+cS4hR7HTd5ZmDNYpQ1rCrc7FvDTh0P5Fh7LcWMU+11cc3EETXKTb41ZsXlE6yoAjd6pnOpc6yhwBHarn3WF+RcrfhzgAeT/d4sawXf9czGmkWzQkLlB/71rJT0FY9/ztWc1evJNpyChTeiPQzF2ZX2qRLLpQFOtddhz9LbVQCOslUxqEaMOL1jgd5s2/u5WPFFtBTVhO/VetHF90pmZ+0BAMio3OnfwDsGEry8apRiR7Lw5S7Zx+2+dYTV7LYwusY9haOMpXb8EGgsduJfjpZ4lmBVEPiGZxplQvbkwRVU7vJv4o2IMUGoTTpTGAoZkRTyZWukQb7jW0s4i2KgVgRu88yiTn9Iugy4vZiJb0ErNUuI8x2jsxJe25f0P/Zv5OUUuSzx8FIa3ykkqKi0yKn1mVZJg9zmzy75PYKVGz3TjXhvVwETi5X4HyeBXs7e1/BnXZOyaNMrfN+/nleSbFAlwzvRvnQ2ZAoG66Rh3VmnK6ID3O5fm1WzZ761kvMcuqtJbcSRli8W4ietpr/cOT5rGY5hVeZW3zrejKQv/aeicrd/U0pzoVDxj1CLoeOXRwe4ybcGv5o9Ea2rXZMoEXSr4l1BhpIz+YjqzAV+kOjDWtHJNz3T00ojTgW/KvFt31pWS5lL/w2qETqVYFZ3kLOBVyPdhokP2u7uiugAJ5qY+bov7IJIFIU1+opobEAnmphs0az4n0r24aXOsabUpB6IfiXM9d6VplYnvRLp5i7/prhZj4WILdIIdwc2p/39bbKX670r6VOyI651sWMMpfqDGZ8sthX/9yRITbAi8k3PdNNXlBbZz42+VbQp5sv/7ZR9rJWGOMZWjUso3AbVq6VBbvGtJZihrT6sRnk92stCWxUVormqyzZBxKdKrJd0bdA2olVumarcm60Vfz5Jup8stlVTbnL4cqM0zPXelXRnUYlgrTTEZ0eWpe0sZxMyKg+FdvMt72rTbPReJcTXvStYI5mvFn2Gvd7I4ecXy4r/SZJIgnzGPYmxJhZnvxbp5nb/OqMZgek5zSi8Ge1lpTRIk8WdtXRp/Q64FpG5w7+eVyPdphtjERReifTQaHExwWJep5UK0c470T4G1Ii+eW1ytVa2iP8tEoQxRQS+7p5qyi6tCjwSauFXga0HFV5kGz0xvZuV0iBuwUKjxZUVRz0RQqrMc5FOfhrYxKPhNobU7OXdKKi8Fe3DKgjMslaYdpcBVWaFNKDn0Frgp5jYDDYb3RYE4NhEHzZbSvAImf9sRFX4WWBT3s2O9dIQ66UhSgM2TrLXsthWwwJrJY4s+AGDSoSV0gDLowMsjfbhVXOn3a+i8n/BneyU/XzDPd2U7Nl5tkq9GmsVaE1E1hUy8cfFZmhczLJWmLLa3uZbx/YC2lzyqlGeCe/hmfAebIhMsZYy3VrOJEsJ4ywemkQ3bp2TQUalWwnRLgdoVwK0ywE2SMPslH15jyu9FummXQ7w/ZLZ1GZo5k2ylOAWLHpN1PmFTvyk+fbTrZk1IV4RHeBO/wbDOji5RBSFDdIwGw6IWjgFC7WiA7dgxSNYsSEQRSWsykRVBa8qEUVhSIkmVEsoBGyXvVzrXcHtntlMy+B5WhCYYS1neXQgY14VAvGnJ41NpSmxt9ee/7/gTpQi1RMOqTJtcnY7rQgITLGW0mwpYYKlhFGik1LBikOwIKsqQVWiX43QLgdoUwKsl4bSysvvVcJc513Jl92T+bAjfVHrZkupXuJPL3TiNyf7sM5i/PXoVaPc5d9kumakANSITkaLLupFJ07BglOwIKHiU6IMqBF2y35TlMqyjdnWCs5yNLDIVk2FYCzu3iYHeDfax6uRbrYZMB+jKPwqsIX10jDXu6em5dfU6zeXJhc68RMGaB2ChXKDD2W1NMhP/BvpNWkXsVZ0cIKtlnm2SmZbK3SlQ/tUiVXRQZZJfbwd6c2pU5kKx9tqudI1gUkZhBrHWNyMsYzlUudYdsk+Hgu18XKkW7dcyMuRLnbLPm7xzDQcpq7XbwHUmzlu2Yi/vQUcH++D0aKLB8uP1XUSCZUHgjt5JNSasZ6jFYGT7XWc62hklrU8o5ybsCrzcqSbR8NttMr+vBG+yeLma+6pzM9SSne/EuaB0C6eD3fqNi3tgsjnXM1c4GjSPcJtcoCrRpbqtXYdQLRQib810WtpnMXDfWWLUp5gh+zjbv+mjFOCrYic7xjNR51jTVdskFF5KtzBX4K7GMmxo32GvZ5r3VNzkjqxU/bxi8BmQ0U5x9tqud4zTdfu/LAa5eKhN3XPd0xqD5oN4ncBdYnCV38sS1iMRURV+Ee4hb8HWzKOapxgq+Xz7ua0nWm9GFAi/DiwkZX6HLSMH9YXXZO52DkmpxNNRuWRUAt/Ce7W/VwqRTufdzWnTE3wqxLnD71hJHCyuVCJP0CC5LQpllLuKTs67pfejfbxx+B22jOMepQJNr7mnppTjUsVlQeCu3gohf5mptGa69xTOcfRSL6wQRrmDv86Q1GgRbZqvuaemjC1I6zKnDv0ut7TzcMkleVsJKnZk9nt8ZzXa70ruNW3NmPSz7ZWcG/ZopwLuwoIXOWayJfdk7OWtPAZ18S8kh40DdPflR5Ns0V/O7Jl0X6uHlnGA8GdcZPnLMZ2gE2zVy2mcwC+m+i8w2oUt2jFr0q8GOnil8EtPBpqMyVic66jke+UzDQlHSJdTLeW4xQsevNPdOM0ez1fchdGgxiPYOUUex1rpSHdz01CZa00xLPhPSixSM7e59SvhHksrLtL0ENAi1lENROXxy4up7jKNZErnOMpFPwssInnwp2mnKtWdHBv2aK8Tuh4CKgyN/vWpFXwIyAww1rGOIuHNdEhOvTXT9yHpqtfUMR3xhyPcYcz6UHb2PnSyPvsNiHc+YOSOSwuUKVmrypxrXd51nej94ECHA2sLCQb/4Zck/5K54SCIz1oevo3uKcjZriuzLNWFizpAUoFK3eWzDW8U5whX+8yY8E2g/hO4MfA93I56GfY6/mka0LBkmK6tYwzHQ0ZnePTrokUOhpEFzd5ZuSyEP804CUMtI7KBvFnxl473yKHArRTrWXc4JlW8JoHVzjH79dYzeg9zrKWUwxYaKviktzuLZwKrEVrJ5Rz4p+Clp4wPZd37BIs3OyZkTahcol60cmp9rq0vnuWvYFiwmdcExmfw16/aMUpj6JFEXNG/I8Bz8V+PKe4xjWF0aK7aAhxVhrmjohQsE3mEsGKyFfdU3L9FhbQNDZ/ZdTuTyeO/xE08X6bvh8QKBFsREworJhjreDLuR/cjDBKdPJSpAufgYzOqdYyLnSModhQL7poVwLsMhjNqhYdXOWayMec45hhLWeL7CVkTDhgEZri2n+zRfxTgMfR0XlcQOBi5xjuKpnHFa7xnGKvY7vsTXuzyoLAHSVzqBLtRUUGAWhXAmwxkHD3IXsD8wu8w2IiTLSW8mS4Q3c+bbXo4NelR3G0rZp60cUUaxlnORroVcJGJ9AiIILO9qFGiD8ZrTNdSkNujMXN90rmcI6j8YNetOWijZPtdbwZ7U0rm/Fcx+i8b9mnCxlN0k8vLnA05dpeNg1lgo32WEd0PfiWZwYzDnDiHYKFE+2jaLaWsjI6YKSP7qnAJmCDWTa+M2bepCywPMfRyB9Lj2FmnIiES7DwRVdzGvajwMeMtZQpKEyzGKtLHVekpN8LvR3Ux1jcHG9L3G7pOFsNvy5baMSnE9B2d6eZRfzfAAtS/eLVrklc756WVDNnka3GSLkZAKfb641U6hQcqkS7IeW4hjyLVGWK8RbPQat4PBxvq03pr40WXfy27Chm61fnKAEeIUU7WT3EP5MU+RE2RL7tmalrpu/ti2QEmRQzFwrG6FzFHYIlK5o8uYaecOw8ndVjpYKNH5fMM9JAZA5wWybEdwP3pCLyDZ5phuLVRsrlJlhKmJqhJEkhoELnil9aYMlo6eJE+6ikynJWBEMbdA5B5Lsls43U9N6IJlWfFvFvJ0U7ls+6JnG6MQFQ5hggvkFx0YJFqc6esgKHBkoFK9OTELsupmph9Jx3lsylUl9kzxpbtEWjxB8DfC15pKWRy5zG89IqRbtu7czFtupDggg2nZSWilQzKL4/l/jZ1aTpx9SLTm72zNS7QBxHgrSGZOy7mSQVL00WN192TUnr4gWgVnDouEmXqarK+YReQodzoPicKyRTWavLwIGfb63kXP1+33fj8TwR8ceidZ1LQFyBG9zTMhIO1aO7OLtIkrR0EV/VR/yAKhMoIN2eTNBsKU24Mme6Efl51yS92p0zgUv0Ev+6ZKv9RxyjjYSX4qJch817KDi1ezGg6t+x7s1SC5582PmJGkxn2gbKLVj5nP6OmTfpIb4d+ERi79rCJ13jMx4UPVryk0xsRJBvGOkn1Zq7iqasI9GqbBUyd+NPto+iyaJrc2secFQq4l8MJCz7Oc/RaErFjR7i1xf5Rs5eqDHZb73YKo8cMsRPtOJbTYhfiQhc5tC9o391KuJ/JnFkQuQShzmpA9YU/oGIQJXJ6mf5QpscMNSMbUsRN5U+EImK5EWTArdnOOr17opfzj67uQeyrwxYkuibi+3VCWewUaS67VLBmtPWOtnEdp0JW3uxXho6ZKI7iZ5h2CT9fysix9trdbmVwMmJiH8GSfLsl9jMK45I1QXDKogcKjDaaDqiKqzKQqfBfEBM+PzNi1wZ4OWZia7rzETfsAsix5hY8Z/qxg+V1V4F3ov2G/7eW5HeQ+L+/QkWuKCJb7R5tkq9qR5nJyL+qYm+MddaqbuHkx6kuvFD5VW/Tfam1SH8tWhPTtqXZhvDCboxmnlvFgS9oe8paHtU+xG/lCR5OVMN6CWaseKPqFLGuviFgBfSVFQLqTKvF2AjaaNINOmHTW5POkV/zcOcA4k/K5nPafZmUn8KxV0VlSElWtQPPaIqvJwBef8VbivqyS+h0i7H7+dp9ibdFKvuhXnWgcSfnezoZhNXfAlFV9fCNqW4N3JeiXbjzaBpRKvs540itvVbZX9CPf1ek/uKjdZfqDTzQOI3J/bMBapNLPLuVcK6VrLdeWy1kykUVB4OZi7s+9fQrpx3bTcLyaJZZuckGdhUnXIg8ROWRZWLNtM2HIy85g7sE1tUq32k24gKcNLJ/2S4oyjHYEWKLjE9Jpo7BjhaeSDxE1aHGKkX1QO97TNXSgNFudaFVZn7gztNO98DwZ1p9aLNJ7yqlHIvwkyVZRFBb9TxIOJXJDrSbrJcX4tOE2ZQibBFKr68lb+FdhvKzUkFvyrxs8CmoloEXo50EVGT7862KOaasjprHiqA/bZHE+YimG1jthiw3Z+PdBYV6XfIPh4NtZl+3vei/TwRbi+KMVBReVqHedZisg8nqbrSIKyAZV/i+zOcSYbsVr14NdJtVE4urybOD/0bdDdGNoo/BbezuQjegK9HenQ9YzODFwqq3gU6BEj7Ej9hSqCZ28thVabTgBngUyUeL5KV7jfBrVlt+hxRFW71r6VLCRbsGEgoPBjapevYdjlg2iLRr4T1Ls8jB9r43mQnNWvV3yb7DG/KPBJqjdsxr5Dwr1CraX2vUvk9N/vWMqQWprP71+Bu3U5rFIWtkjkp2AYWU++BxO9NZuP3meSsbUwjROlVo/w5uKNgSf9mpJc/5fD6WmU/N3hXFVykZ7M0wiOhlqzzIR4MBBP6DiT+xmRHd8jBvBEf4JlwR0Gm6r4V7eWH/g05Ty1okf1c71vJngIxe/qUMLf71xm2DMzaq9mm/82x4UDir086m00qh9sop3ejKnCnf4OpYcJM8Wqkmx/41utuc2822uUA14wsz/uCMKJG+Y5vLf1pbEily4cDYaDt6EHE34CmaJ3gxJlf4B4lmNHreVCJcKtvbd7tfRV4KLSbO/0b8i4A5VWj3ORdzUOh3XlJbRhQIlzvXcn2NMslB5QIOwxWqB0UplFlI+c4iPhBtD61CU2UTAd2WRoFGQdip+zjG95VupLcsgG/KvED/3ruD+4smA0lGZX7gzu51rsip/lNG6VhvuJdnvFvLov2ZfT95dKAXm6qwGo4uDHEeOD4RB74LGsFjZb05bofCO2k0wSbtF+NsCzaz1HWKspEW84e9MroADf51qTlp9gQGWtxM8NazjH2auZbq1hkq2aBrYrZtgqmW8upF104BJGIqqRVk9qvhHkmvIdBNcI0a7lhbUq9kFB4JNTKXf6NeE14+0ZQODuDph8Phnbp3Qx7H/glaLtY++Ip4BuJvvVapJuFBiW+P3idqDJro0OmDX6L7OfL3vf5mnsqp2VZWLZXCXFvcCevRLp0r/JCTA14sa2aWdYKplpLDXVq7FACrJeGWRkd5N1on+5MRhmVJ8MdvBTp4mxHIxc5xmQk17f/cqnydrSPPwd2mJKAtxebpBGG1WhaOWEhVTZiSTz1v+ezPyxAFwl0dUoEK4+Un5CWdOCbkV7u8K/LCjEX2qr4omuy6e1z+pQw/w638US4nbC+7XDqRCfnO5o41V5nmiJFRFV4T+rnyXAHK1NkPHLQAxVYaKviFHsdx9lq0yofHVQivBrt5olQh6mE3xdfcU/hAkeT4e89Ge7g14Eteg+fB6yJR3yA/yOJbuZX3VM4P40LvMW3xhQbP9kDPsk+ivMdTRk1RlZQWR0d5IVIF69FenRHbMZY3HzKOSGlLrwZPs5Dod28Eekx7GNYEZgSaxzdbClltOiizuLEiQWnYEFCwadKDCoRWmQ/22Ufq6RBtkrerIdrJ1pK+FPZMYaf1aeHl+oN6e5EqzlRExF/TswBiPv06kUXD5YvNvRwB5QIHx9+O2dRhzEWN8faajjaVk2zpTRpBb6KSqcSYoM0zFppiGXRPkORJ49g5SrXRM5zjDZFHUx/+G6YewJb2XoIiU/dU3Y0UwxU+r0Y6eIn/o16D79ur32fiPigdTc8JdEZbnBPM+SMPBxq4b487rzWig5GiU5KBCtOwUJUVQih0K+E2SMH084XmW+t5Jue6XpVe7MSzflXqJUHgrvytpdgJs5yNHCje7quYwOqzGdGlupVsBhBU1cY3temj7tIAx9PFsY629Goq1dTWFX4SWBjXqUyAqpMrxKmQwnSIvtpUwJ0KkGG1ShKGm8hAbjSNYEbPdMTSuTlAiICs6wVzLdVsjTaT4jiliPZKftZYh9FuY4y13uDO1gh6fZ3frOvY5uM+NuBS4G42mzhWLH4cbbU0m3/DrfxZvTQEEcCLSx5k2cGFziaCkbyapToZIl9FCulAYbU4lWmUIEhNcoSe3JltDXSIL8JbNW7ZEWAT+672muLRiK/IUUboOfCnbySQjrDp0o8HGo5ZEhvReTWklmcYqDRXa5QJzq5u3QBE4pcWv2NSA9rk6Qf9Cghvudbb8Rf/BnQcnAwJLkXPAuYkeiAZVI/R9uqqU4QtvtVYItpuRj5hojA7SWzOc5EGUWz4RQsnGSv5Z1oX1rd47OJcsFGk8XNaIubUsGKV5USmpkrpQFOsdfhPsCMHFaj3OxbYyQFuRX4GBCNZ64mQxNai/SEy0iVaOcnJfMOWmkeD7fz28DWQ2a1/7yrmUuLpLt6mxzgK97lec9pmmYt4zR7PUdbqw5q4LBXGPc/4TaWx9mbGGvxcIdnNmNi3+tXwnzLt9poesQFwBOJ/LRUuCH2ukiIUsHGHSWzmWOtYESN8lBoN/8OtR0y/fuW2Edxq2dWUV3z29Febvety8tvH2Or5hPO8bq6m4O2ufmzwKaDJqoVkUW2atyChRXSgNEEx6eBDycLUKR+y8NzaBLiSeEWrIRVuWgFkBK9ou8rX2RKF5hc48f+jbwU6cqpn3GNe0pa5uB70X5u8a01a6OsB22XtjMT4gM0AKsA07w6CwITLSWMsbhxCRYUtK3xdiVAhxwomKlzs2emoa7thQSvGuXTw0uznslqReBi51g+6RyfUWLczwObeTa8J9PLkYGzgJeSX7M+dAIXAq+SRIZED+pFFx93juMkey2lCZKSvGqU5dEB3or28k6kL2uqBakw0VLCKfZRFCtKBRuXOcfxp+D2rP1GlWjnVs+sjLtgAlzlnMhLOvR4UuBbqUifKqpzINpjE+Aj6V7RGfZ67iqdzzRrWdLNL4dgYYKlhCX2UXzYORqPYGW77CWS4wlwg2caY4q8wXSzpZTnIntMVcrYixnWcu4qmW9aCNUlWOhRQmxLPw3j78CN+iwOY9iIlrZseLvyKFsVt5fMMpzA5RQszLFWcK6jERmttlLJgSHUILr4qnsKQpF3ZrEKAn5VShobTwfnOhq5rWQWJSbLS1YIdv4bSdvcuR4tDK/LcTWCcMzWNwSHIHKDe1pGJCoVbHzR1cz95YtzEks/19FY9KTf917MFP290jWB69zTDNUX6MV0axkNYlrFTjLwnt6D07nyd4x+4Wx7I6NMSuSqF518r2QO17mn6coVShdLiti2PxC1opPpJjT2EIAvupq50jkhq9c7Nz1/YS0xsahsEf/ddFacbKxifyg9mskmtygCaLK40111ChbpVs79jygC17un8dEcbOLNsqVF/HeM3Y9xvAX6vcwG0ZW1/JExFje/KTuKM0wuPZxnreRQw3xr+sQXELjJMyOjulgjmJPeiv9mtonfhVa0q++1ld7s1e+8IfJNzwyucI437ZwTijySEw8TLZ60rHwBuNY9Jad7GY2iiypjHXiiwPPZJj4ckNucDM1ZMEXiPZyrXBO5zj3NlLK/cYcg8d2CNWEyYTJc7ZrEhx2jc369TaLbyOGvA0O5IP6Teg+sFhw5G6y9IbZMSwBzec25RJXBtItLnWP5mHNcXq7VoIzNU0bPny7x1wG6aglLxdxWKB1vq+UWz6yMwnfuLEaL8gkj1WJL7KP4nKs5j5NU9+KjGlmIMyU+wD/0HFSSh9K8E+213OCZljb17Yco8fXm0Yy1eGL7LvlDmX7evAvsziXx/6bnIFeeSHSmvSHtFatYOrAYhZ60Bbsgcrtn1kFFIPnwSXTioXTOnwnxN6NjF9efRxJd6hzLeWk4ZsECb0KRLvSosV3tnFQQzr3Ot40EPJpr4uuabcN5bl7wZddkQ1otYH67+UJBr5r8vqZay7jI2VQQ16ozXeR5tNz7nBP/YUiuaZHv2k+7IPJtz0zsBmQPzW5DWQgYUaMMJlmEBAS+4iqcpLwAut66D6V7/kyJvwd4LdkBhSB3Mcbi5hMGNrh2Sr5Djvg7U+jHn2GvNyWfxzyzLKWJ7CeNMKZZxE8563YVCIkudY49qOA5EQwIFRUNVkYTd02xInKla3xBXe9QahP5P4Avn8RPOuvMaiGUKayIfF5nlKdXCWe1bWc+8H4Swd6zHA3UF1hSno4+Ck9ncn4ziN9HkqLeFjmQV/nAfXGcrYaZOiv/U4llFRPa5EDCVj0CcJGjqeCuWYcC8up8Ex+0XOi4UFHT7o+UDejdgn82sueQUYt4NrIn4Z3Ms1YytsBykwKqnKrLZhBN5jLvxE8q4LLO5LK3TLDYVsNoHQlQA0qE1yM9RU96vyolbTx9vrPwVvut8kiq8tL1kJlCrlnEX5rsw3czbO5lJgTgTIe+/P0Hg7uKftX/V6gVb4LIWo3o4NgClETU0WHz3Ux/wyziv0gcfcK92CKNFNSm0IfsDbqS2DqUAM9krvOSN/TGWhkldGrtDVnt3pIudCyULxQK8UdIUpyiAi/nUNErFWpEh+5SvD8Ft5vSqTEf+E1gS9LAwnH22oKcrFulpJHACFr+fUEQH+DZZB8+H+ksKKNBb7liSJX5uX9zTiRNTHVow3t4J8nKWSHYmVyAkuLPJXHEY3iDDOL32SD+QySpxW2TA6yKFs7G0AJble6X/CppkHvz2MrIKDZJI/wmhVL1Ilt1wcmnKKhJHfEY/mrGb5lJ/N2kSF94LIm9mWuUCzZDYbx/hlrN0HXMOjqVILf716aUXTzGVl1w1/5SpIvu5Nr3PuDfhUZ8gPuTffhetJ8dcuHkwRjVb/lFYHNBO7s9SohveFenlNMWgAW2wlKSiKLwYHBXqsP+YYaZkw3iP0Kctiv7OrkPBncWzGAblbFQgV8GthTUm2svdsg+vu5dSZcOR7xedCUU7M0X/hVqTbXaq8CvzPo90fSJC3cnO+CdaB/rC2RDa3Ia2YgqKr8PbOMXgc15U3E+EG9Fe/m6dwU9OlvkNFsLy6ndKfv4S3B3qsP+jbZxVZDEB/gzSXJ3AO70byyIHk31ojNtRYZnwnv40sj7eU3HCKsK9wS2cYdvnSE15NHGpDuyfA8yP/JvTNWnVwV+aObvZoP4IeDWVLboz/yb8h4gtCBQKaYvJbJb9vOVkRXcG9yhq6zPLKho3QGvHlnGv8PGWy7V5akhdTz8OrCVXan9vodIQ6w4+bPPDtYAZ6I1j4uLNiWATRBMaSiQCV6IdDKopl8eqaCyXhrm2fAerIiMt3iwCWLWCL882s9dgU08Gm7Dl+ZkO9PeUBB1tY+H2/W0g/WiNXEz9dWarVJ6BfgKsCzZ5Lo/uJNa0Wm69qUROEwi6bAa5ffBbfwltIuzHA2cZq83XOubCINKhDeiPTwV7jDa9S/BPedfPmV5dIA/BLbpOfRWtEo/ioH4ACuAO5OZPSpwt38TlYI9YzXfdCGp5hpcflXisVAbj4XaaBRdLLbVMNtawSxrOZU69SAjqsIWeYS10hCrooOslYZM3TnOd37OJmmE7/rXIaW+pzeB32bjGrI9AtbYxS9OdpCm5TKbRXnYVPnU8Lt05CgXp1SwMdriolZ0UCbYcAoWbIh41ShhVaFfCbNHCdKjhM3q/hd/CfXMypv+/27Zz/XelXqCG0NonQtbskXMrC6owBVonSqqk61wt/vWcYtnJifmMHFKRaUnh1mjXjXKZinK5jybGcN5iqhtlIa5xbc2YZr0AcbAZ7JF+mxFdQ7ETrSOiZHkM0The/71/D20O2fRnlY5UDCx+FyiJQ/1xO9F+/mmb7Ue0gPcjlZMnjXkystpBXqB81IduEoapFXxs9BWZUgLJx28Eu3m/ejAYUd8FZVzcyT9rQKPhFq4W/+G39+Br2f7unLp3q9Ay9s/U8+K9EKkk7EWj25JkHTwy8CWjEKZxYoBNcKZjoasC/p61Sg/9G/giXCH3rf4C8DHYibyIUN80EoULcCSVAcGVZlXI910KkGmWctMFzF9N9pXkDk3ucTRWQwmLI32cYtvLVv072y/hNZDOSdOVz4Cuq/GPPYz0RFV2in7eDqyh5CqMN7iMUV9eUCJcKt/bVaaHhcLtss+jrfX6A6x6j+vl7sCm/hbaLcRWZkngI+i7fpzqBIftI2tFuAcPdcgobJOGuKJSDvdSohSwUat6EwrFrtT9vFt3+pUmYCHPBRU3ov2s9heQ5kJmZqbpBH+ENzGPYFtejRx9sUfgE+nCn6YjXyX4BwHPAYY3rqtF10sslUz31bJNEsZNUlybobUCKujg7wc6WZptD+rMfIDB7dKdFAnOqmN/bdMsCFA0o7gQ2qEQSXCoBphQInQoQRS5tinC4cgcoljLBc6x1BucAL0KWHejvbyfLiTrcaT9STgO8BP8kG8Qqg9awL+Dzgjk5OUCjbqRScVoh23YEFBZUCJ0KOE6c3B6m5BYKKlhMnWUiZbtH8TLSWmRaaG1Sg7ZR+7ZT9bpRFWSAOmTgYbIvNslSy0VdFsKaFRdFMm2HAIIhIKI4pEtxKiQwmwWRphozTMNtmb7hKyHfgUaTQLP5SIv/c6PoeWy194FdAJUC06OMZWzTHWao6yVea8i8hu2c9KaYB3In2skYZy9ibLACpa2voNmFRJVezE34tJwH16oj75gluwcJq9nrMdjUy2lBbMAHYpQZ4Pd/F8pFN3QUqOsQv4ApoGU0GstIWI04G7gPmFckETLCVc6GjiFHtd3vp66YGMykuRLh4I7sqJiafHFQB+hlY2WDAzUqBwIQKXxFaJJeQmvSKuOfMFVzOn2EcVnBxHMgRUmT8Et+VTGWJTzHf7Q77NmmIj/r4YB/wCLecnZ1hiH8V17ml5aVlqFh4OtXBfbjWBNgKfB94u5HEploauw2gKDrvQNr6yLhFwsXMM17unm1aoki/MtlawXfbSpgRy8XN/RauWKnj1rWJ7qn8BjiaFLHmmmG+t5Iuu5iIybJLj/Ow3fhgBLgeuROtNxRHiZ+dVugj4dbZ+4HLX+KKy51OhwuS0hAPwPrAArQNm0aBY3+NB4GvARaSQMknLoRA9HEpIoT6cLkJoO6/HFYNpc6gQfy/+A0wH/gTm7d7sKVJZ8HhQ0VoBmYx3Yqv8D8lBCvER4id2fPeGPLeYccInwu2HDPFfi3SzybwVPwDcBJyEFq4sWlg4dNCKFjd2xBzgtO+tRfYzw1pOo8VV1APSp4S51beWsDnllU+jZdM+a+bb9ciKb96K9A1gFvCvTMyDH/k30FXEqcs+VeI7vrVmSDVuBj4c+9d6qBDFwqGJ/hjx3wKmAYYLTMMovBXt5Th7TcEpC6e8dlXmFt/aTJtrtwHfREse3HKoEUTg8MDpaOJWRxv9Yp3o5O7S+QXX+TsRQqrMbf51rEy/iL4H+DkFlltzhPiZ3evpwHXAWUbuvVZ0ckfJbNMkAbOFLiXE7b616TbfWAv8Ek3lIHw4kOFwxHQ0bc/LgQo9X7Ah8nl3Mxc6mgryhtZJQ9zhW8+QMdWIaMxpvQet2PuwWgUPZzjRNsGuir0NUuIUex3XuafmvOgkERRU/hlq5f7gTiPNqDcB9wJ/i5k2hx0Od+Lvi2vQ0iBSRrqqRQefdU3idHt9Xgdwl+zj54HNRuP0TwCXHQ7mzBHi68cn0BrY6VrOZ1rLucY9Jee2/4ga5cHgLp4OdxhZ5Ymt8FdRpLutR4ifXZyPlgLt0DeAAqfa67jMOZaJWW6YPKxG+VeolSfD7UY0a/bid8C1cBiKhR4hvm6chtZassbIQB5lq+JseyPH2Wuwmbg3uFka4elwB69GuwmrhnkrAd9CC1EewRHip0QT2ibYYqNfLBNsLLJVs9hWwwJbpeENsIiqsFke4b1oP29GejLR7+8FPg68fORxHiG+ETjQit6vzeQko0UXU6xl1IlORonO/YSbFFQCqsyQGmGPHKRV8bNN8qXqAqgHbwOXkoU2Okdw+OBcYDdaGk+h/wsA3wXsRx7bEZgBN/DjmM1cqKR/BZhy5FEdQTYwH3gqFh0pFMKvQduIO4IjyDrmoBW/y3kk/Fq0Am/xyOM4glxjGlrmZ0uOyD6MVnBz8pHgxBEUAkTgFLR03rUmm0KtsbfLxwDXkaHOHEdWjOyhBjgRmAtMjv0bDyTrZ+qNRY+2A9vQksnepAhVDI4Q/wgSRYhcQDla+DGAJsp0BDnC/wPSXfmbQxNv0gAAACV0RVh0ZGF0ZTpjcmVhdGUAMjAyMy0wMy0xNFQxNDo1MDozMCswMDowMGdL6p4AAAAldEVYdGRhdGU6bW9kaWZ5ADIwMjMtMDMtMTRUMTQ6NTA6MzArMDA6MDAWFlIiAAAAAElFTkSuQmCC;" vertex="1" parent="HcRGdp-QQwa-oywtqrRt-11">
          <mxGeometry x="99.89999999999998" width="47.51" height="60" as="geometry" />
        </mxCell>
        <mxCell id="HcRGdp-QQwa-oywtqrRt-9" value="RuuviTag sensor" style="shape=image;verticalLabelPosition=bottom;labelBackgroundColor=default;verticalAlign=top;aspect=fixed;imageAspect=0;image=data:image/png,iVBORw0KGgoAAAANSUhEUgAAAeUAAAHmCAYAAABNpJbMAAAAGXRFWHRTb2Z0d2FyZQBBZG9iZSBJbWFnZVJlYWR5ccllPAAAMTZJREFUeNrsnT1YHEe2hgt0AzkymynTkDkTZLoRQyZHgkyONGR2JMg2E2S7EShaOwJFWkVAZCtiyOxIkOlGDJk2AjJtxO1vplsaIX7mp3u6zqn3fZ56kGVbmq7pqq++U6dOTQUAiJ2ZrM2V8Oe06UqAuJmiCwAmQiNvIRfYmfzXD/t+/+q/mwSdvBUcZe3imn+HoAMgygCmnGzx8/s+Z9t09qyFUJ9n7Tj/edT3EwAQZYCJMJe7Wv18lItwk265VrQLx92+xo0DAKIMMDCF8BbiW4gxjEch0Kf5rwuHDQCIMsBnAW72iS/Od/LOWuJ8jFADIMqQFjN9wrsQJp9UBYMLdfuKUAMgygAORLgQ4GYo51gR1IPE+TD/2aY7AFEGQIQBkQZAlAFuQcK7lLWniHCynOfCvB++JJMBIMoAE3LDS7kbXgrsCcO3SJT3+kQaAFEGKJFGnxtu0h0wpIuWQB/mP8nsBkQZYAQIS0MVFA4agQZEGWAAR9zK2vNAsQ5AoAFRBqhFiJdyIcYRQ90CvUNXAKIMqTHTJ8RNugMiotiDfh1IEgNEGZzTzIWYrGmwQCcX553AMStAlMGRK25l7UVgnxjsQngbEGVw4YpbdAU4QuHtV7hnALDiilezdpK1SxrNedsN5EQAQIQ0sradtTMmalqC7SSPCJEnAQC10szdAhMzjdZblG4GcicAYMLIFbxnEqbRbmyKHHHuHgAqo8iiZr+YRhu8HQT2nQGgZDFeD+wX02iIMwAgxjRa8JcUBgCAGNNoiDPEDMVDoF+Mdcb4ReBoB8Ck6GRtJVBnGwD6WMUZ02jsOQNAvbQC2dQ0WmzizFGqhCF8nSZakescZYOuAIiSnaxtBOprI8rgGq3ANwNhMgArSJi3Qu8iDECUwQkzuRi36AoAc0iQ1wLXRibBNF3gnuLWJgQZwO6iWttNKm3bpDt8c48ucIsGr5JGnmXtPt0BYJ4H+eK6kbXjQEjbJYSv/aEBq1D1El0B4BYJ8qvQK/QDOGWIFIWq3wSOVAB4R9GvZr74/r9AljZOGaKimbtjxBggTXZCLxmMkDaiDDWiBJCXuUMGgLSRIKtk5x5dgShDPe6YAiAAcJV2Ls4dusIeHImy6Y53Qy+zGkEGgOsW7Do+RQQNpwwVs5S7Y25xAgBcM04ZanTH27lDRpABANeMU4YaBxV7xwAwLnu5ayZDG6cMI6JjTuwdA0AZaPvrJFBYKGooHhInOm/8O4MHAEpGRUdUelfbYH9l7RNdEheEr+NjNXfIkOJqbG4uzMx8SRtoNBrdVhbtdvurfz46Ogrn50QzE+Uo9MLZR3QFogzfUiRz4Y4d0mw2vxLdhw8ffhbbq0JcF51Op9sKsb64uPj8exJu/R64RJXAtugGRBn65uxAMpcL4S2c7aNHj7pCW4ixFwqRVjs9Pe0KtX6NYJuHJDBEGXLWQ69UJhhBzlZN4ruwsFB6iNkqhUAfHx93w+T9zhtsrLmythwIZyPKiUK42pAAy/nqpzfnWzVF2Pvw8LD7U2LNHnb0EM5GlNOb60OvEAj2KjIkumpywLHs9bqzY5l7ljgXjprQd5QQzkaUk6GVO2SITIRxwfW5aYmz3DQiHRVkZyPK7tnORRlqoghBS4SXltg5iFWk9/b2uiKtn4S76/06AtdBIsoOUQxUlbnm6IrJI/F9+vTp5+xoMGbXMue8v7/fFWhcdG1shF5SKiDK9s1ZLshsTk5qBTQz85UQsy/sh2I/uhBpmCjsMyPK5mmFXnUuVGGCQkxYOg2KMDcCPVEUqtCxqQ5dgShbYz1w/rj6VU+rhRDDZ4F+/fr1N6VEofzuztpiIAEMUTYECV0VopD08+fPu0JMaBquohC3BPrVq1cUL6kWhbJ36AZEOWZI6KoIJWjJFUuMSdaCQVFimMSZLO7KIAEMokVC/D5rl7TyWuaGL3d3dy8BxuHs7Oxye3v7cm5ujnFVfqPuAk45SkEmw7qscMPMTFhdXcUVQ6XueWdnh84oj3boJYARjkCUa6cVyLAuZ2UzNxdevHjRDVMDVI3C2YU4s/dcznon9BLAEGZEuVZBJnQzJkrYkhhT5hLqQsJM5nYpdAI3TUFNrAb2ksZqmSO+PDk5YcMTouHg4OAyWxwyPsdrZ4FkV5zyhOHI04iwXwwm7F6nEzY2Nth3Hh3OMsNEBZnV8JAtE+PL9fX1bhYsgBUUyVFEhzE8csO84JRxyDE6Y+0ZU+gDcM5JQpERwCHH0HDGgHOm4ZhxyqWbvUCVrqHQkaaXL1+yZwyunfPKygrZ2jhmRBlBjhcdadre3kaMIRkkygprI84Ic1lM0wUI8rio6MfBwUG3IciQ2kJU7z2L0YEhL+cO7tEFCPLInTQzE/71r3+FX3/9lQkJkl+Yatvmu+++65bx/PTpE51yM7pn9TRwXApRRpDLQxnVu7u74fHjx3QGQMb9+/e7zvnZs2fh4uKiK86AMA8Le8rfIkFu0g3Xo0lnc3Oz6wwA4Ga0z7y2toY43w57zDjlW9nOV3BwNXyQh6q3trbCgwcP6BCAO9CWzs8//xympqYIaeOYEeURBblFN3yL9sp+//13QtUAI1CEtE9PT8OHDx/oEIT5VghfI8i3rvSVVcrtTQDlsLe31z3frGsj4RtUK7udeidwJApBvhYlcr1//x5BBijTEi4thZOTk+5P+IbdQIJt8k65FbgPGXcMgGuOheRvl0rZKSPIuGMAXHNcFEdSGzjlxMZD6IVKAHcMgGuOj6PcMSfXISmK8ly+EuMewXy1LkHmWkWAepEgLy8vU0c7cWFOLXzdQJB7SIQlxqrKhSADxDEmVUdbxXngs4FKrjNScsqUzyze9Lm5riBTlQsgUot4dNR1zboiEroVv1Zwyv5AkMOXZC4EGSDuhbPGKUlgXVohoWOrqVT0Upb1k5Tf6qJM5t///neGOIABdMGFKoFp7L579y717tDq5Dhr7kuipRC+Xg0J7ktcXXUTrgawC+HsLkmcYfYuyskffSK7GsCJIpGdLbQqmQ+OM7I97ynLFiZdHERZnGRXA/igyM5WXkjCNEIvP8gtXveUi0zrB6kO3jdv3nRvdwIAXzx58qRb8Ofw8DDV6yAf5OK87/HhvIavJcjNFN9W9o8B0kD7zIuLiylXAdMxqR1EOX6U1JVkfEdCrPAW4WqANJAgS5gl0Imi/WVXD+9tT7mVqiArVK1zjQgyQDoU+8wJb1W5q9DoaU9Z8do3Wbuf2lu5vr5OaT6ARNF5Zp2yuLi4CH/++Wdyjx96NSh+Q5QjWzCG3tGnRmpvpPaPE8/GBIDwJQFsf38/tUd/kGuAiworXkRZDrmZ0luosNXvv/9OGT4A+IzyShLNzH4cnFT88pDolVzFrmIfiQxrALiORDOz9bBK/OogyjUuDLP2HkEGAECYQy8Te97yA1gOXxcFQpJJNy5ujlF4CgDgNh48eNDdZ/7rr7/Cx48fk3nsYHx/2bJTVmJXMhuqnEEGgFFI9Czzctb2EOXJ0QoJ1bVGkAEAYR7ukbM2GwxeXGFRlBuht4+chEIhyACAMI9EO/SuejSFxYpeuwgyAMBwJJgk2gwGKzxaE+X10Mu4RpABABDmu9i0phmWwtfJHH9CkAGgShILZZs6JmXFKRdlNBFkAAAc87CGzkyBKSui/DIkUNcaQQYAhLkStLfctPBBLYSv1ZEH3t8YFQTh6kUAmDQKZc/OzqZQ+asTemHsqB80dqcshXJ/HllCvLu7iyADQG2OOYH5pxF6UdeoiV2U3YetqWUNAHWT0NZZ9GHsmMPX6jj3YWsNhGazyawAALXTbre7WdnO6YReta8oiflCCveXTWxvb3MfMgBEg3Jb1Pb39z0/5kxuSNuI8uCsB+eXTWxuboaff/6ZWQAAokKhbIWx37175/kxm1nTyiO667NiFOVGcH4mudVqhX/84x+MfgCIksePH4fT01PvxUV+yNrr2D5UjHvKB8HIebKRlmfNZncfGQAgdrS/rH1mx6xlbQtRvsVEBsdHoCgOAgCWSKAcZ3RXPMYkylKqk+A0uYujTwBgkU6nE+bn5z0XF9nJ2gqi/C2qTbrq9Vvn6BNYn5jVxOHh4effvxra7P/vbuPqWCiyfsXDhw8//5oxEwcJHJXSw7UR5S+4vgFKmdarq6uMbIgaOSGFKdWKJJ9BRbZqJM6KNinSVIg2gj1hO7mzE1ZWVrw+XjQ3ScUiym6Tu5RprfPIALE5X4nu8fFx1wXp1xbDkxJnCbXawsLC5+M8UA0SZYmzU6JI+opBlFvBaXIXiV0QC4XwKvSsX3u+fKBfpOWmi1A4jI/zxK8okr7qFmW3yV0SYt36xIQAdbhgCW+/C06ZItT99OnTz2FwGO/9cpz4pTBArTH6ukV5PRi4tWMUdOsTJTShDkecQO3isSgEWuOTRfNo7O3theXlZa+Pp73l2laydYpyI3fJ7lBSl5K7AOrgb3/7Wwp345aCwtwS6efPn3NccUg2NjbC+vq6y7Vt6GVj10KdZTalWnMeB7lcMkBd/Oc//wl//vknHTEAHz9+7PbVb7/91r2E4dOnT+HBgweEuAeMOChHIYbs/AoMo8791fJgdTnlZnB4LSP7yBADmiRnZ2fpiDEFR+5ZpyfgZhSR0bvmMDIjQa5lENXllLfz1Ygr3rx50y3kDlD34jCBywQqX9jIOb969aobefjhhx9wz9dw//79bt+8ffvW3TDK2mmocW950i750ltbXV29BIiFk5OTS4/jrM6WuefL3d1dXq5r0Pzn8Duv5WRQHeHrE28uWeFqha1ZSUNMJHDDT23j/eXLl4S2+3B8fnkj9E4JuRVlvcXuCoVIkMnchNjgeFT14ixhfvHiBQtyxXkzQdb5ZW/rjTDhgiKT3lPeDc4KhehIwLNnz5ihIErReP36NcejKnSHWvgoc/u///1vd2GuPdZUUdb61NSUt+iMvtD/hgleVjFJUW7lzQ0ahEruAoiZd+/e0QkVomNU/eKc8kUZTo9JKQz6m77qSfxlkwxfu9tLJmwNscPxqMmT+p6z0zKcE9tbnpRTdueSCVuDBbTXqRrYHz58oDMmhMRIx6nUdFwotboFeucUxncWoZH70rmvylcakxJlV3vJhK3BEgqvSiBgsqhamPb0tShS/YKUksH0vM7C2PdzDat8IE0ifC2H7CrjmrA1WHNuqocN9bpH1cRXWDsVHGZjTyQTexJO2ZVLJmwN5pb49+8Twq6ZIhlMzlkL+hRC2g6zsSeSiT09AZfs5u3TQNKZRABr6KpCqB+Fc3V2fG1tLYmjaooMOFuAvKjaZFYtyq5iNdvb2xQJAJOkfEwnRra2trqh3RQqrmnedIQEYNWqKLtyyboQnYkNrCK3Qh4ErrmuBaGz42GVuuUqRfm5m6VR5o43NzeZRQC3DJW5Zs+3emn+dBRlnAkVHvGtSpSbeXOBsia5Ixmsw75y3K5ZwiyB9ogE2VnmeWXJRVUdiTrwIsoS45OTE2YNcIGyYSFutFXmNX/FWURgJWs7Fpxyw5NLdpakAIlDCDt+9vb23IaznW0DVuKWqxBlNzEKTWBMYoAow6Qpwtk7Ozvu3j9FApwwV4UBLVuUK90AxyUDjMejR4/oBEOsrKx0G245HbdctiiveulppfCT3AXe4FiUPeSWPd26pHlVlRGdINtfqlCUnfXh4npGJVgouYtCIeAR1cFOoZqUNyRmu7u7LhZWev90paiT91Ap82sxOuVWcFIsREegEGTALUNMFMVGlAjmwfhonnWCtK80wShTlF0UC9HLQn1r8AzJXrYd5vLysosEMEd1sSXIpWWvlSXK6lkXI91Z5RkAcIiSvzwUGnFUUKQ0Jzcd2weqE63anNVoBfiG77//nk5wgGpmW8/MdpRQO5e3aETZhZKldAE5pAt7yn5QGNu6MOOWyxdlCbL5eC8uGQAQZtzyGCyVoYVliLKLBC9cMgAgzMy/Y1BKwte455S1vDF/WwOXTkBKtNvt7tEa8Idcp9VKhDq3rGNfxlHB8vk6nXILlwwAgGNmHu4yF8as1zGuKJsPXbOXDADehFmZ2RZdvpO95bESvsYR5WZwUMGLQiEA4A2dYbZYYMSJWx5rX3kcUTbvklUkBJcMqUFxnDRQGNuaMOtaRwfvZ2McYR5HlM1fikmNa0gRzimnJcxHR0emFoxOamI/HfV/HDX7WvbS/GXDZ2dniDIkhzJclekKaaA57uDgwMxiTPW9dZOZcXT91Wz+cyJO+an1HlPYGkGGVEUZ0kEiJ8ds5ZpEJ9uKI59Znp7kXxYTJHgBQCoohK3bpazgJOFrJPM6iiibF2RdXce+GgCkhIrGWDkqpaNRDq4YHans5iiibD50/fz5c0YoACSHjkrt7e2Z+KxOoplDm9hhRdl86JpiIQCQMlYysnU8ykExkaFN7LCibD50jSADQMpYSvxyMF8PHcIeVpQJXQMAGEdOeWNjg/l6csJciSibD107CYcAjAVHokBY2F/WfK152zgLVYlyE5cMYJ/T01M6AbpYCGM7mLcrc8qmQ9dOVlwAAKUhQY79/LKDCOdQUeZhRNl86BoAgqlayFA9Or+sUDbzd6UMHMIetPa1Km28t9wjJycn7CcDZMzPzyPM8LWVm5kJ79+/j3aOdFCvvRN6tbBLc8qmg/qq3oUgA+CU4XqKY1KxovnbeBXGRm5uSxPlpuXeoM41AIIMtxN7GNvBPD6Qjg4SvpbCn1juCa5oBOihS+9jdkRQL5ontdUX43zp4ErHdtYWy3DKpl2yEgQQZIAex8fHdALcKnyxXlqhedx4wpe09E4xGkSUFyz3wtOnTxlpADmEr+EuFE1RKJv5vDJhvpVBwtdnYYTrp2KB0DVA34CfmqIT4E6UVKVs7BidvPEQtjbt18ZxynOWBZnQNcAXYnU/EB+KqMSY9OUkhB3GEeWm5acndA3whcPDQzoBBkYXVsRYgtP4vC6j2xhHlE3vJ1PFC+ALVi63hziQIL969Yp5fcJu2a1TJnQN8PUES5IXDMv6+np0t4ppXm82m5a7dWFUUTa9n0zoGgCXDOMT473Lxuf3kZ2y6aWI8ZUUQKns7+/TCTASOiIVm1s2HsJu3GZ4p0e12DFDrWuALyh0jVMGT25Z87vxOb6ZlFMmwQvgCwgy4JajY2FYUb7VXscO+8kAXyB0DR7d8sKC6cNBN94YdVN5n1bWti0+qTLzVMULAFzcQwsREdu99MYr1E0N45QfWX1KErwAvvD69Ws6Ady6ZY/VvaaH+Y8tQOga4AvaCwQo832KaW/ZYwh7epj/GKcMYAcleMWWnAP2iSn64rGIyNQNLvnA4hNqr0N7HgAQwuLiIpdQQOnElrejW6NirNE9AFoxzw7ilHHJAMZRSU0EGapAAhjTtojheb8RrjnldJ0om03yMr6/AFAaMV4kALxfzPt3m2CcMoAztI9MghdUiSIxsVxwYnzeb7oVZQdl1wBKIcYLBAC3XJnVnJuz3I0P7xJls09n/IsBwCWDKZTdH0uClWG3fGf42qyysZ8MEMLKygqdABMhpotOPItyA6cMYBNlW5NxDZMklrrqjx49styNX4nX1XPKOp9scslxeXnJCIGkmZ+fjyb5BtJBZ5Z1drlu167zykZReGvHlVMm6xpSZ2trC0GGWoghh0GLAsOJvl99cBeiTOgaUkYugYxrqItYym4a1oFHN4myWbtpfD8BYCyU3GW0zCA4QBGaGN4/w6J8o1OesfpEOGVIFSV2xZIBC+kSwzto+ATO3E2izBllAEPInXAECmIghixs48Wj5q4T5YcIMoAdJMhczQg45S+iXHcW+BjMXCfKJpcZiDKkOgkStgaE2Y0eNK8TZbM1rwFSQu6YsDXExuHhIaJcAuYTvSivCamxvLxMtjVERwzV5B4+fGi1+xauinLT6pPglCEl5JApEgIxEsPRKMNO+do9ZUQZIGJUOYkboAC37FIP5lw4ZcprQkouhH1kiJ2695U9mDTTTtlw+jvAUIK8uLhIR4CJd7V2y2k8A7sQZZN1KjkOBd4pCoSQ2AUWiCHZy7pZK0TZ5FMYzrQDGEiQ5ZBJ7AKEeQi7aXdbc868KJPkBQgyQFzwzo5u8vtFmcIhAAgywNgcHx/X+vcbrl3xfb8omwRRBgQZIC6oxz4yn8PXuGQABBmgFOreU7aeACxRZj8ZAEEGKI0632PD2deNQpQBoEYU7kOQwdsiE9M2uiib9PpU8wIvjmJ+fh5BBldQ2Wt0zIavAayjOtZyyBQGAZwy5MyYDV9TOAQss7a2RqUucEvdkR/DyV5z/2P1k5PoBVYdhO5DjqEcIUBV1H0synKpTTnlBV4hgOqREM/OziLIgCjDraKMUwaoGIWr2T+GlKjzXTe8vdlAlAEqpMiu3traojMguXcffUhIlAFidwlyxxx3AoBh4EgUQMns7e3hjgGnzGJ0JJR9bS53nNA1xDoJyR2TyAUQwsXFBZ0wolM2B6IMMaFMU505ljtGkAHqx3LFx//h6wMYXYw3Nja6lbkA4Gs4aTASDxFlAMQYoHTYUx6JBqIMMCBK4Hr16hUhagCoDEQZ4A5XXIgxVYoAAFG+zt+T6AUVor0wCfH+/n73JwAAoowow4QdscLSCDEAIMoANbhhibAuY9dPklIAAFGG5NyomiIdk452FMJ7fHzc/YkIAwCiDEmjAhv9mcu6iFyH/HWjS3Ep+aiH/gvBlwOW8OqnhLf4fQAARBngilvt5y7HKqG+6bLyQnQBABBlgAmA6AJAanB1IwAAAKIMAAAA5kWZsCYAACDKkcDtIwAAgCgDAABAZZ4TUQYAAIiDY0QZJkZRIAQA/DNqIaAysFwwSKLc4fWBSXBTIRAAAETZsCiTfQ0AAB4h+xomBlduAqSDatpDIqIMiDIAMN4dGjeyrwEAwBe6Kc4oR2YTvdhXtsejR4/oBIBEqDP72jIS5VOTHp99ZXOQfQ0AcLcoA0wEzikDMNYnwdW72y35TbOiTPgapwwAjHVndPeUTS4pLi4u+PpYQQMA4/xbu2l4e9OsU2ZPmRU0ADDOr7WbNiOp56ZFmfC1TcjIBPDPwsICnTCCrBWi3KYvYFJQ5QfAP3UWDrFu2HDKkMxgBQD/49xyNa9+UTb3FOwp24TwNQBjvEoM3xB13C/KJm0nbtkmZGADML6r4vT01HT/mS4eglu2CSFsAL/UnTdi2Cm3+0X5EKcMOGUAGBfC1wk7ZQqI2ITjEgAsujFr3370flE2+RSG65uykgYAxnYFkH1dI9bDFKymAYBxjVELfVcom3bKiDIragCIh7q3pgxrwjeibNbvk+zF4AUAFtvC8HGoo6ui3HX+uGXAKQPAKCh0XfdFFIbD1xfXibJJjo+PGQ0G0eBlXxmAhTYm7WanzFllwC0DwEjEsCVlWJTPrxNlk0+DKNvl6dOndAKAE5aWlmr9+40fkW27EWWtjCi3adcp170HBQD2Bdm4QftKe/tF2W4ZFNyyaWEGANvEELo2nHl9oyifB6NHoxBluxDCBsApJ64DRzeJslm3TAY2gxkA6kGnKGK4+c3wnvKpO1GmBrZdtKdMCBvALs+fP0cDKnTKJoPyJHvZhhA2gF0IXVcryiR7wcRptVp0AoBBYgldG97C7IQruVxXRdlsDODw8JARYhSFsNlbBrBHDKHrrnA5uB3qJlG+9j+yAPvKtiGEDWCPGKJc2ro0XMnrcBBRJtkLJo6cMoVEAGwJcgxj1lOS102ibDY4jzDbhRA2gC1iCV0b37ocSJTNKhvJXgxyAKgeJXfFcpTRsBlTgldnEFE2q2wke9lGgzyGTE4AuJ2XL1/GoWrn524qed0myteqtwUIX9vnxYsXdAJAxMS01WR8zj8cVJS7z2oyFpCtmhBm28SSPAIA8Y9Rb/vJt4my2WQvQtiswgGgOmKKZu3t7VnuyrZ7p+zgS4IQz34VAHzrkmPJ+9DZZMPnk/XBz4cRZdPlNqmDbZuYMjsBIE6XbHyr8sYPPz3K/4RbBtwyQFpooaxa17Gwv79vuTsPRxFls5uz7Cv7mABwywAslJ065SOcMjAJAICLRbLmeMPblOfJibLxA+XQNxFQTASABfJVjEdDb9XW6XH+55h5/fo1I4nJAACcueTCKRvmcBxRNrscIYTtAx3BYG8ZgIVxgaKgho9CpeuU9aURwmZSAABfi2LjUdBb95Ndi7KDLw9yyMQGYEFcYDwKeueHnx7gDzErzISwmRwAYDRWV1ejS7R0ELq+c0t4EFE2e0KbELYvt6xQGgBUj2rQx7gQdhD9vNPkunbKTr5E6HPL3CAFkO5YMx79lEO80+ZPl/UHxQohbD8olKaQGgCkN868Z10PI8qm3TIhbH8reAqKAFTH9vZ2lJ/LQdRzoK3g6TL/sFh59eoVI41JAwDuQHeZx3rSYWdnx3LXnuOU+yCE7QtNGpo8AKA8tIcc64LXeK3roTR0UFFWb5hVNn2ZxldZcI1bJukLII0xlUroehhRFqYrgBu/exOuWdVzdhmgHBR5ijX6JFPlINo58ANMDfGHNrJ2YrlXTk5OSBJyxuLiovV7VQFqX+BqbozVJW9tbYW1tTXLXawJarEKp9wJd9TsjB3OLPuDMDbAeOzu7kY9hhwk6g4Vpp0e8g83rWrsK/tDkQ+ysQFGQ+eRY64rryiY8bPJYqjY+3SVf3hs6MslE9sfMe+HAcTK3Nxc2NzcjPozOohuDl18a1hR7gRC2BAhcsvkCwAMhsLVClvHjJNTM0MLzvQk/pKo4giZU3YQDgGDkwwAi9jBcVL0aejQ7PQk/hK+bJgEFsJxAHWjfWQL2z0OXPJE7414n7VLqy1zVZdnZ2eX4JNswrm0/H7SaFW1ZrNpYgxnTt5Df490q8f0iKJsOoRNhS//oTm5ZgD4gsLVVrZ4nOT+jBRVnhr1+w3GC4noBdWBefCJbgZTYRHj9XIBSkE5FwcHByYWqzoGpbFrnHYYomBIGU65Exwcj8It+0WTD+eXAXpYih45yfkZ2erfG+Mv/S5rpg+HXlxchFarxYh1yg8//NB1CO/evaMzIGlBfvbsmRmz9Msvv3jo9pWsfZr0X6q6bGfB+Gb8wcEBmVHOyRZeJPnQkmx69xmrE2+1hui2A9mIYAB9z0zSNAQ5Xk5OTrz0/VgR5OkxRdl8ipySCrhlyD/KOiUjG1LBYk7FxsaGh67vhDHzrcYV5XaY4OFoXgYYea/FUPYpwLiCrHfdEk7uTC7FqE6X8CHMp8rhltMRZq56hBQE2do7roxrJ8cXd8b9A6ZK+BCNYPzMstD1ZdZWlzAanGEGBDkulzw7O+thPMrZjX3Augyn3AkO6mHjlpm8AHinccljUEqO1VRJH6aZNfM2E7eMYwZAkCeHziXLJTtA5rSUB5ku6QO1g4OEL9wykxkA7/DkcJRkW9pJpKkSP5RuxDB/bx5uGccMgCDjkodktixjOl3ih9rJmv2d+swpO0nNhyEnN45LgRVUHvj9+/emozyOXPJOKDFSPFXyh9Np9Zb1HuYGqTSRU5ZjlnMGiFmQrV+24uQmqAI9SLusP2y65A/noyRLpxO2trYY/YlBgRGInc3NTRe3nzlyyUdlCnJVaEPWfP3SbIK+PDs7o2g0l1jQaFHMR5kYuxhbu7u7nr6b0iPD9yoQ5dPgIIT96dOn8N1333UTvyA9lpaWwtTUFNn4EE0E58mTJy6e58cff/SSVKmH+MnKhz3xshLSzSWQLnIncim4NVodbW5uzlXEbn193dP3s25pBdHy0vFc7Qjv37+/bDQaiARtom11ddXVOJLBcbTAPVMQw5q1d+OWtQcCaSO3wp3MNPaPR2dpacnT92Qy227dyxcgl0TSFzgMv9EiDFcrMuONg4MDb99Vw2R+Qm7xXXwJmowBigmGfWZaFeFqr4t/Z9s/ps+krXsaNCR9QX8421k4jlZjuNrzFpnD6FLDsii7csskfcFVNjc3cc20kZsWdp63xpwld6ntVi2a9yr+8z9l7bvQu9rRPKr0pTODjx8/5vAkdNG78OzZs3B8fNx9PwAGcivZPPLmzZuQuchw//59t8+5vLwcPnz44OmRfgkObkR05Zap9AW4ZhrueLDx4Oy7c3V94Lq3QQVwU7iOo1O0cMMpDiUJppJz4XCB2vQkyq7ccuDsMtwBlcBo/dG11E5vOEyCdOWSXbplwtgwiFvQMReEKe1QdWqnNpxdOOHSJbt1y4SxYRBUDIKQdlpN33cqoWrn2dbmzyUn5ZbVPJbDg2rQJE0Nbf/7xinPCU4Xnw3XJwG8uWWtCikqAsPuNyPOiLE3HGZbu3fJbt0yRUUAcUaMU9+icZrY2AiJcOLty6M2NiDOiHGq6CINh9/zZkiIlseBmmJiByDOqSVwcRzya5yeMDB5X/K4vPe4euaYFIyLJn2ytePKG2m1Wi6vVCzjXXX6va+HBGl6PZcIUAZKIJQYUISkvkW2kpdYaN/8fjp9N09Cwux6HMwayABlIVFQaNvpvh2umH3k2NpSyqLc8Dq4GdRQlTvRHh57z+VHuNgrTn4fOYpymlORHJF66e5A9sxMyCbQ7k+AKjg6OgqvX78Oe3t7XBs5wvjMhDgsLCx0fzJOB2dnZyesrKx4fbx5Da3URXkmj+G7GxVzc3Mhc8yMYkCgYwjLNRpfCTGM9p4tLi6G8/Nzl+uNrNW+2piKpDNawWnllNXV1bC5uclohokhUZY4Hx4ehna77XUCHcgNN5vNzyIsUYbR0XskQZYwe3y8rM3mPxHlHMXymx6/7e3t7dBqtRjVUAsSZgm0JlPPIi3RLURYUSo1KA8Jst4fp6xlbSuGDxKTKGsEuY31KozNJAExIHFWOz4+/izU1ihEV0JciDD7whUq1tpa2NracjskQm8vOQqmIuscxXlXPX7rmjAkzITQIFahVti7EGr9uu4wZSG0xU+Jb/HPMDmcJ3Z1gwBZi2ZlGpsoz+Ru2aVyaTI5ODhgRQ9mUKhb4qyfEmxxl7O+zbVKWG9Di1YWrnEt1ubn5z0/ouz/WkwfaCrCTlJa5K7XN0AJJ7u7u4x2AIhekB1nWnfXnCGS5K5+7kXYUR9Cb3/5B49vwYcPH8Lp6SlHMgAgXrXKhHh5edn78bqfQs1nkq2Isvgr9I5J3fe6AlWIjr0xAIhRkB0ffSrYy9pGjB8sVlFWOOG/WXvi9Y3Y399HmAEgOn755Zfwxx9/uF53ZG05RBa2LpiKvPPcnl3+/IAHB92zlQAAdaMsa2VbOyeaM8nXMR37OxLraqYstG/jPEwEAAbY2NhIQZDbMQuyBacsdG7ZdZ1KHR+RYyaUDQB1kMBZ5JAbPJ3v6iDK4+M+jE1xEQBAkCsl6rC1NVGWUqmoiOuqGxQXAQAEuRLaoVe5K3qmjXRoJ0Savl4mCRzWBwAEedJoQjXzoNOGOlZhhz2EGQAAQR6ClRD5PnI/U8Y6V3Hdk+A8jC0IZQMAC/+xkZFbtvSBp411sKkwBAMHAGJzyAnNKx2LejFtsKO18tlK4Y1CmAGgTEFWyDqh+cRknYtpo52tpK8kKm4gzABQliAnhDSibfGDTxnudFXa0PnlJDZddX5ZVz5SYAQAEORbkRgvWv3wU8Y7v5W17VTeNCp/AQCCfCsmqnbdxrT1dy5vabxtaVypBgAlsLa2lpogC1PHn67jnoMv4TD0rnh8kMIb9+nTp/D27dvw4MEDHDMAXK9MmRj/+uuvqT22EoBfWX8ID6L8KWt/Ze1Z1u6nIszcxwwAV1E07aeffgr//ve/U3v0dtZ+8vAg95x8IR+z9p+sLaX0FkqYLy4uwpMnT5iNABDk7vZWu91O7tGz9r+5QUOUI0IbrcrEfpzS2/jnn3+G09PTsLS0FAAgTYqjkx8+fEjx8X/MmpsHn3L4Bek2qeRiupTlBEgTOePl5eVUaxmYuI5xGKYdfkk6n5bc26mV8vz8PJnZAAmRWNnMbx4/OKzu6FGUz4Phg+Pj0Ol0ugN0b28vAIBvlGGd4JGnzz4kd8nuuOf0C1Pi12lILPFLFEempqamQrPZZOYC8OY6Mlf8448/prz4LgqEuAwP3HP8xSWZ+FWgfabj4+NuZvb9+/cDADiY1PKErsS3qZRp3fH6cNPOvzyFN5JdTmolzQAG8EGxf6xtqoRZCc4vI5rmS0xjZa0BDQD2ULi62D9O/LY4JXW5n8juJfBF6kD5u9C7vCLJOG5RAYxCIwD2FtU67vTHH38kHyjI2i8pPOhUQl9qUlc93tgJc3PdKyBVohMAIlahnZ3upRLcpd6NdCZz1HU6sS92Jfm3Oz/PTDgbIE4IV6cryKk55YJWSOgO5ttQac7t7W2qgAFEtGhWuDrxZK7P65NckJPKCZpO8IuWRdzife9lZ8s1J1jAHiA6NjY2uuMRQU5XkMW9RL9wJX41QoI1sr9588/Pw+vXr0kCA6gJibDcMVtKX6FrGJN0C9MJf+naX6YeZc7W1ha1swFqGndEq5ibU3fK/Y5Z9vAB4yCEjx8/ht9++40SnQATcscabzqyCF8JctIhgynege4RKR2VmqMrvqAjU0oCQ5wBynfH2j8ms/obdgInZJJ3ykLL1Lc45q/p32t+/Pgx9bMBxkRbQ7pIQuMKd4wg45QHc8zvQy8BDPo7Zmam65p1hAoAhl/gyhnLIQOCjCgPB1W/bkGhbIkz1cAABkPHDlWVi2NOCDKijDBXxvr6enjx4gVFRwBuQCKsilxkVSPIw8Ke8rd8DL2s7Gch0Qss7kITzdu3b7uirFraANBDoep//vOfVOVCkHHKOOZ6UEj75cuXZGkDKsMFEggyoowwx0Kr1eqKM/vNkBqKHClUjTNGkMtgmi64leRuKBnHJczOzuIUICkxXlxc7DYEGUHGKeOYo0V7zaurqySDgUskwFp8KrMaEGREuT4aWdsNVP5CnCFZMdZ5Yy6OQJAR5Yh0JlCSE3EGxBgQZIhKmFX565I2XMsE+XJ9ff3y7OzsEiB2Tk5OLlutFmN39LaJXOCUccyGnPPz58/J1oboUAKXnDGFP8Yi+dueoB62WQ2P1+RE5EgA6mZ7e/uy2WwyLsdvLaQBEGbjTZPh7u4uygATRVspm5ubl41Gg3E4fjvLGrfWQBSsMiDLaZocNUmy7wyT2C9WngPjrjRBZjuvBNhTLo9W7pqhBLTvrKsilbFNfW0oC2VQ6z5j9otLRUWWVvKfgChHBUVGqujUTJSVFKZSnhypgqEV4+ioK8QSZKrNVSLIVD1ElKMXZhUZadAV5SNhfvr0addFA9yExLdwxRJlqISdwBlkRNkIHJmquoMzxyyBloMmvA2fVSIT4v39fUpgVs9G1tbpBkTZGtpjbtEN1aKzznLOCHSaSIALISY8XTnq4LXAGWRE2TDKzKayDQINZalCJrxK1EKIaxFk7R+zH4Aom6cZevvMZClNWKCbzSZ70A5Q/el+IYaJQ0IXouwO2bbtwD5zbUiYFxYWukKNi46fQoT1k2StWtkJJHQhyk6ZyYUZ2xaJiy5EmhrcEVixTHglwIeHh7jheKCGNaKcBOwzI9I44VyACzFmbzgqOllbDuwfI8oJ0QzsM0eLjlwVYW4JtX5SuGSMGb7T6YpvvwhDvOulXJBZJSHK6c39uTA36QobblriXAi1/hlH/S0SXbXT09PP+8G4YDNw/hhRhnwQvKQbbFKEu9Uk1nLUKSSSSXDlgCW+Et7CDYNJznN33KYrEGXI5/ZAONuds+5vDx8+/OysJeRRz9CZsy0EViHnwgEXZ4TB1/oqEK5GlOFayM5OVLi7X/4Vh/3999/f6LjvcuO3CWchstf9twhucqg61xbdgCjD7ZCdDQBV0glkV0fJNF0QJVq5zjNgAID5BacMcbGZO2cAgHHQnrGKgVCZBVGGMWmG3l5zg64AgBHYywWZZK7IIXxtg3bohZtIyACAYd3xciC7GqcMuGYAwB0DThnXDAC4Y9yxSe7RBSb5lLV3WdOBUx1WfUCXAEDujnXvMZnVOGWo0TVv0BUASdPJxRh3bBz2lP3QCL295iZdAZAUWpRvIcaIMsTJUi7O1NAG8E079BK5OnSFHwhf+0N7SrOBRDAAr0iEFaZeRJBxymCLRiCkDeAJQtWIMjhAIe3NwNlmAKsoAraGM0aUwRfrWXsR2G8GsMJRLsZtugLAJzO5a76k0WjRtpOstZiucMqQDo2svWTgA0SF9opfBfaNEWVIlmYuzk26AgAxBoB4xPkgEDak0SbduGAGABBnGg0xBgDEmUZDjBFjAECcaTTEGAAQZxotzXYWevUBEGMAqIRGvuJnwqXR7hZjCvUAwMTEeTOffJiEaTSKfgBABMgJrOaTEZMyLdWmrZ0m0wEAxMRSYN+ZllaImoteAIDQNo1WY3ufh6jZLwYAc7RwzzQnrlgJjnMMaQDw5J7Ze6bhigFugAspoA609/w0kKUKcdLJ2l7oXRDRoTsAUYZUmMkF+nkgcxXq5TwX4v38JwBA0jRC72iVwoWETWmTarv5whAApwxwi0AXDprEGiibfkfM3cWAKAOMINALOBoYEULTgCgDVMDMFYEmIxZuotMnxG26AxBlgOqZC18yuQlz44Ylvoe5GHfoEkCUAep10c1coPWzQZe4pxDhNm4YEGWAuGnk4ryASLsS4aM+ISZJCxBlAMMiPdcn0oS74+b8igDjhAFRBnBOIc6P8p8Idf0u+Dj/eUSXAKIMAP1C3QhUGqvSAXcQYABEGWBYGn0C/RCxHohOn+ie9okv+8AAiDJAJczkrroQ7Yd9v24k8PxHfc73InxJvsL5AiDKANGKduhz1t/3/V7/v4+FflHVr4+vON8QSLoCQJQBEuA6h122624P+HsAUAP/L8AAtHJEa1GMklYAAAAASUVORK5CYII=;" vertex="1" parent="HcRGdp-QQwa-oywtqrRt-11">
          <mxGeometry y="5" width="49.9" height="50" as="geometry" />
        </mxCell>
        <mxCell id="HcRGdp-QQwa-oywtqrRt-12" value="" style="group" vertex="1" connectable="0" parent="HcRGdp-QQwa-oywtqrRt-7">
          <mxGeometry x="50" y="140" width="147.40999999999997" height="60" as="geometry" />
        </mxCell>
        <mxCell id="HcRGdp-QQwa-oywtqrRt-13" value="" style="html=1;verticalLabelPosition=bottom;align=center;labelBackgroundColor=#ffffff;verticalAlign=top;strokeWidth=2;strokeColor=#0080F0;shadow=0;dashed=0;shape=mxgraph.ios7.icons.bluetooth;pointerEvents=1" vertex="1" parent="HcRGdp-QQwa-oywtqrRt-12">
          <mxGeometry x="66.56999999999994" y="15.599999999999994" width="15" height="28.799999999999997" as="geometry" />
        </mxCell>
        <mxCell id="HcRGdp-QQwa-oywtqrRt-14" value="Compute Board" style="shape=image;verticalLabelPosition=bottom;labelBackgroundColor=default;verticalAlign=top;aspect=fixed;imageAspect=0;image=data:image/png,iVBORw0KGgoAAAANSUhEUgAAAL4AAADwCAYAAAC+Jt6BAAAABGdBTUEAALGPC/xhBQAAACBjSFJNAAB6JgAAgIQAAPoAAACA6AAAdTAAAOpgAAA6mAAAF3CculE8AAAABmJLR0QA/wD/AP+gvaeTAABFfElEQVR42u2dd7gcZfXHPzPbd28vuSU3/ab3EEiooUpVmoCCoogdRSkqgoBYUFHsYoMfoCKioHTpvSSQ3ntyW26v23en/P6YDaZsmdmdbUm+z5MHnruzszPvfN93zjnvOd8jcOhABBYD8wAfsB1YBsgcQSZojo1rObANeA2IHBmW7GMq8FPgfaAN2AG8AvwIOAYQgLOATYB6wL/O2Heb45zXeWRoAXDExnBfVABfAZbGGdM+4MuxhWYicD3wNLA59nzWA/cDpx8Z2vRgA+4GpDiDv++/LkBJcYwCPL/PBArE/j4MPAocfZiNbRPwa6A9Ng5RYCvwR+D/AH+K8dy7qKQ65nmg7giV42NC7CFsBsL7EFLPwJr1TwEej5lJANWx1WxsnNWwmFAXu4/RsfuoA34BBHM4tkNAd+z/ZaAV+AdwwuFM+tMBbw4fgp4JMHjA3waB+xKYS4WIMuC7QMsB9xHc501XKGN9c74GKdurmQgsAY4HZgENgCf2AIaAU4CSIiFUALgGeKCAr3FhzHQbV0SL3/OAPTZhw0BvzOxaCjwXG/eigQB8Edidj9WkrMaWzVXqGwU65kuy9fYURNSSKms+3grDMT/P9MXRkoUH4AGeAa6NRQdMg9Nj4dRP19E41YXVJuIflpAl9aDjykfZ+fDXGpGiKv0dYW0ID5yZInH/rmNCnxF7IEsLiPTHAf9NlyCJxsLuEpl/ViXHf7SGzW97kaIHH+SptDJpQQlzT6+godlFx5YgqmrafTmAY4GPx94MfYVk6liB+lgkQAAeBM5L9wEIgoAiJx45d5mFS24Zw6jxTqSoyo7lPja8Ocyu1f79vrfo/GpOuryW7p0hXri3i64doQMmh425p1XwzmN9SBHDT0oFXo9FnBwxh+3rZj6YFON9M1oI1x/72zExU8EQSiqtLDq/mtf+1nPQAjLtuDJOvXIUnkorD9/eQvvm4H4TYuriUmaeVE7TdDeCAJveHuHZ33UmfXZWu5DOWO9FS8wn7EcLRQ9nYgalS3wX8AXgQuCo2CpvyjQ89qIaZhxfRl97mM7tIfZsC9K1I7jfgLlKLVz10wl4Kq0f/G2oO8rSf/ex4c0RFFmltNrKF+/R/FFVheVPD/DGw737PZirfjYBi1XgiZ930Nsa3j+W6hCRJTXpgzwAncBVsZUpW2gG/oq2oaRvyXSLhAPKQX+furiUM7/QwKa3Rnjxvq79xvacaxqYOL/kg3H987U7PjjXUedUsfCcShye/xkLu9f6efRHbaj7/IyzxMLoKS4aJruon+SkvMbGGw/3su19r1ljIaHtGbwI/BLYk21TZyLwBvCJmBNlN/PJtm8KUF5rY86pFYyf42H2yeUcfV41TdPcOEssjPRLBIZlRo13UjvOsd9ANx9dytRFpfS1R6hucjB1cak2nwQYPdXF2Jludq3xEw0pIMDCc6qobLAzc0k5Q91R+tr+R/7yWhtnf6mB7ct9eslfClwRG49Xs0D6C2KTaqLeL5TX2vjIdaNZ/9rwfovLSR+v5bRP12G1C/S2hdm+3AdAQ7OTS28dS/0k1/8WAKfIprdHmHxMKRd9awwT55dgtYv7/c57Tw7QtSNETZODeR+qZMkVtZz6qTpmnFjGmOluKursvPCnLjNJvzdwUh8LnHwWWI22W5+VFd8e+4HphuJrNTaaF5ZQ1WjHVWpBiqqEvDJBv8zgngh7toXw9kf/d0cWgS/eMwlPhfVgG0OB1o1+Rk9xY7ULCQ0RKarG/XykL8q/f9LOqPFOzrmm4X9fUeGFP3ex9uWhD0yqa/48mT3bgjz2o3ZCfkOZD79H2/lUTHrIn0DbDbXq/ULtWAeX3DyGSEjh3q/v/GABOPPz9cw+9X+ulxxVefBbu6gZ4+CcaxrjjpkUUROPNTDcGyUcUBi1z0K0L7a97+Xxn3X8j3QCVI120NjspLTGhqvEgrPUAioERiT6WsNsWeolEjI0fAFgAbBFr71oBJcaJT1A0CszdXEpTdPdCY/xD0q0bAiwY4WPnpbQQavKvn7AuFmelNM50YMqq7Fx+ffGaQ7dvl8R4MzP1aNIKutfH6a02gZA42QXF3+7iX/9oM3Ig/hSzNG8isxzhT4fm0ii3i9UNdq59DtjcZdbsAUVRIvmN53x2f1JD2CxCVx221jc5VYEIbFtnurNkjTaUWGlos7G+LkeJi0ooWmaG7sr8e2sfG6Qda8PGx0nN3Aj8LlsrPj/ib1yDcPuFPnoLWMYPcVV0HFYOary6I/aOOqcKpoX/i9I0rohwGM/aosb2UiCnwLfzOByPoy2o6yb9GW1Ni6/Y+wHExfgzUd6iQQVTvt04WcPrH5xSPM50vOBB9B23U0n/nvEy2sRwOmO7y6IFi0KIFoEympsnH/96KSzvSCgxh+ZLe96eepXHR+E6+omOFFV6NkdSna2TwF/SeMqZgHvxHyHuJh+Qhnb3vN+4Pg7PRYu/95Yqpscuu+pkNDXFua/v+8k5NNekiFf/DesoqhEggnfviX7RLtMI/6rwMkH/nHyMaVccMNoDge8//QAr/21B4DjPlrD/DMr+fttLQx2JszUDaPlpSw38DPlwMpkjuzEBSVceONoHr2znZb1fixWgYu/3ZTaDDwEEA0r/OWm3QzsOWjMo7EIY1SPZ2wEG+M6L+952fjmyGFB/KPPq2LB2ZUATJjrwV1m4eKbmnCXJwyQOdD2NhwGfubnyUjfONnFR77eiGgRGD/XAwKcc03DYUF6gFf/0hOP9KDVC0T1nMNoODMMXJkoDDn7lApsDvGQH/gJc0twuEWmHqvtGblKLIyd6WHjG8Mo8d/AtbGxflnH6U+PET/u27iizsZlt43FETMtq5vsVNXbmXlS+WFB+vbNAV66vzvRx39AZyjZKPF3A5fHcyCkiErIp+znEB6qEARoPMBJL6m04i6zsmOlL9HXjgWeREvRTRaZeIEEqR6iReCibzZR1WjfJ+IiUjfh8KipURX494/bCYzIiTyzT6Ht6KaE0eV5IjAm0YfrXx9muDfK4Yq5p1cw7biEmQNWtFz4ZLgerQYgLo67uPqgCXc4YcvSEfraw8n81ZP0nsso8X9JkpI9RVZZ/vQAhzPOuLpuv1SKA3AK8KEEn9WSJPOzaZqLxRfWHNZju+zx/lSH3IXORD0jxJ+OjuSzjW+NGMlvOeTgLLHwoc/WJzvkhwn+fhMJEs3sTpFzv9J40Kbb4YTe1jA9LeFUh9WjpY2YSvxT9BwU8sm0bUwzaU7VQlXFjuaFJUxckHDhWRhnLCtIsuO4+KJqylLsjhYDDKYg7B+ueU93no+uIncjKQuVcU9gEzjq3CoCIzLBEQkgbo68Pq9Rc5LbNviIRlQmzvcUbZTo1CtH0bLWn2gsvnFA9OFLJNioqmyws/DcqqIlu39YYvcaP6XVNhqa03fC7S6RiQtKsNkF3GVWZEll7StD8Q6tMJv4u+P9UYqqVNbbOenj5oTTXKUWJi4oYaQ3ypv/6MU/JDPjxDImzPUgWoqn7ruywc6sk8tZ81Lch3MWWorx9thb94uJznP8JTVYrMVV7y5FVHas9LF1mZfKehsLz6vC6cms5mnhuVX7LQD//X2nIZ4eCCNX041WVXXQZGnfHGT68WUfxJbNgMNjYcK8EqpH21n530Fe+UsPwRGZijp7xoOYK4wa72DVC0P75anvE4HwoukDnYGWyXkQqkfbOeOz9QmTxwoN3TtDvPNoH8/9oQurXeCkj9fSvLA0YcJhumjdEOC1v/Qk+vh76MjQNMIgP5pMxcJ4M7xzW4hpx5ZhsZn7lNzlVqYeW0bDJCfrXh3m9b/30LkjhN0pUllvL2hSONwWhrqj9OyO65RNAH4Ve1Cz4x2w5BOjCj5GHwkqrH99mBf+3MW7j/VR2Wjnw18bzcyTyrOSkzXQEeGxn7QRDcU1ITeiVcKltLWN0qYGWIumlnAQGie7+OjNY3C4s2eXb13m5fWHehjqjlJSZWXOqRXMO6Mibu5+IaBze4i/3bI7WcDgyXj2vbPEwpd+35wyJTifUZZVzw+y6e0RIkGFpuluTr1yFHUTszdR+9rC/PP7bfiHpXgfK8BpaBKHppo6oCX795MgNdk7ILF7nZ9JR5VkLQOzusnBvNMrsbsstK73s3uNn5XPDzLUHaWizo6nvLAmQGmVle3LffiH4j6s+STYsJp7egWTjiqwXXAVdq3x89J93bz2UA/dO0OUVls58wsNnPyJUZRUZm/s92wN8uiP2hLt2gL8jdQbhGkTH7TiikUJ7aFBiS3vjjB2pjtrq7BoERg91cXsUyuIhhW6d4bp3hVi9YtDdGwJ4i6zUllnL5g03KBXpnVD3BBvwoD/yVeMKpgQphRVWf/aMM/8rpMVzw4w1B3F4RY58bJazrmmkdqxjqz+/qa3Rnji7g7CQSWV9fIHvedMhxrvoqPY2emx8IkfjqOywZ71B9PXFua1v/awa41/P8dw0QXVzDihPO8bP31tYe6/cZehyNY1f5qc9+uOBBVW/neQFf8d+GClFS0Cc04r5/hLanGXZT/IsGWpl6d+2aFHskSJmYy6NpHSWZLjLkMNzS6aprvo3hUi5FOoarSnH8836niMcfDRm8ewY4WPlx/oZrgnSn9HhGd/18m7/+7n2IuqmX58Wd7CoTVjHLhKLQS9+qoQm6a580r6SFBhxX8HWf7MwAdFIdp1uTj96vqsr/D7kc0hMH6OB/+wTEmllcYpLlbuMxH3NQSMWDDpMOFvxNkWFi0Cn7xzHKPG5zcKEQ0rLH28n/efGkDep0ywst7O4ouqmXFCfibAo3e27fdGSoYTL6tl8UXVOb/GcEBh5X8HWP7M4H7F9e5yC0uuGMWsk8rzbj6ufnGIF+/tivdRB5oKdNZsfIDLDvJ7VGjbFGDmCWWmx22NwGIVGDfLw7RjyxjYE2GoW8sWDflktr/vY/PbXtzlFmqaHDl9iD27w+zZGtR17FHnVO2Xepx1Gz6i8v5TAzz5iz3sXO3/oK5YEGH+GZVccONoGie78k76npYwT/1yT6JcsAfR1OSyRvytwMXAqHhOXPvmINOOK8v7bqOr1MLMk8qpaXLQsTX4QY1myCezdZmXXav9VDc5KKvJjQPZvTtEyzp9OUxHnV25X7F41oI0quY4Pn53B1vf218isKHZyYU3NjHntIq8LmR7MdQd5ZHvt+5neu1rnQGfRFO2zhrxVbRY/ifjfd/bL9G9K8SUxWUFkWJQM8bBnFMrCPpkuvcpCvcNSKx7dZi+1jB1E5y4SrPrqA10RNixwqfr2GM+XI0ry45j64YAT/6ig1XPD+6ntGZziCy5vJYzv9BASVVhhIa9/VH++f1WvH1SokNuQevKQjaJD5pWpB84M+7s7IqyZ2uQKYtKCyLPxGoTaD6qhKapLto3Bfd70P0dEVa/OETIpzB6qsv0nee9aN8c1G3jzzm1PGuh4KHuKM/e06nlQQ3uT6Sm6W4++u0mJi0oKZgd8cHOCP/4XhvDPQkLnJ4mQcpHNogPmlrwCSQoih7uidKy1s+URaUFk2FZUWdnzmkVqAr72duqCp3bgqx/bRh3uYVR48x30Hes9NG+SZ+NP2VRKRV15tr4iqyy6vkhnvh5x35SiXtX+RMuq+HMLzRk/c1nBP3tYR75fhve/oQr/QDa7ncwl8QHTVltSqIPfYMSO1f5mXJ0acFo6VisAuNmexg70037pgAh//9W/2hIYdv7Prp2hBg9xWVqMtyaF4fob9fXLLCh2UVDs3klhu2bAzz2kw42vDF8kGM4dqabS24ew6SjSgoq72nPtiD//H7SnVrQVOpuT4sHGV7fl4mz5V5ea6O02obdJeIus+IqteQ09qsHZbU2Zp9cgbc/epBS8mBXhLWvDGtF5ZNdCGJmjFBVeOm+bt0S2RarwPTjyzK+x6BX5uX7u3n5AS2zdV+IFoETP17Lhz7fgLOk8LJd17w8TNArY7MLlNXaUWQ13vjZge+Thu5apnP8KeKUI7rLLFx221hqxjgoBmx8a4QX7+2Kq85VN8HJuV9piK9OpnfF3RTg4e+26j7e7hL54j3NGSX77Vzp47k/dsXNEapssHPeVxupn1Qc6gyb3xnhmd/G1d73oolvGSZ+plN9EnDqgX+MhlW2LvMyfk5JwWZN7ovasQ6mHVtG1/YQ3oH9ieIfklj32jB2p4XG5vRi2S/8ueuD/QQ9kCUVu1NMKrKbCJGQwsv3d/PqX3s0OfQDMOvkci78RhPlo4qjlHHTW0kbTrxJevKMGRN/V8zcscYj/6a3Rqif6DTdUcsGnCUWZi0pJxpS2bMteIBjqGUldmwOMnaW21DBTct6P2//03ijlN7WsJbT7tS/6u/ZGuTRO9vZvfbg6JHVLnD2lxo57uLiqeh678l+XryvO14hz158G9iQD+KPxMylUxKtXJvf8eIqtdAwqfD1YARRYMJcD5UNdnav8R+0ygz3RFn32gjltTZdZpxvQOLRH7anVUAvRVQ6d4SYeWJZSh9DkVXe+lcfz/2hM24+UFmtjUtuGcOEucUhMShHVV68r5v3nkgqVfNSjPjkg/gAb6FVE81N5NjtXOVnYE+ECXM9WYuTm236TJzvYfca/0FtdOSoZsaFfDLjZnsQE5Ay6JX590/aGeyKpL+q9EXx9UtMXFCSkPyBYZn//LSdDW+MxLV0x85yc+l3xhbFWxe0fYZHf9TGzpVJN/vWAOeTQQ8sM4ivAk+gxVJPS+Qw97WF2brUy6gJuUsTyASeCiszTiync3uIkTjqcJ3bQ7SuDzBh3sFFN/0dER75Xit97ZGMr6Nnd5jObSGtdvWARWPP1iD//GErvQn0ZhacVcm5X2k0ZC7lDSqse22YJ+5uT7ZZBZrE4jkYSE/IFvH34m3go8TJ4dmLkE9mQ6zTxZgZ7oJ/FjaHyPTjyxjojMSNwXv7Jc2PmeSkvNaGLKmseHaQZ367B/+QbNp1DHVH2bJ0hLIaG9WjNRNr1fODPP3rPfvtQ+wbq1tyxShO/FhtxqHYXECRVR6/u4P3ntw/ozYBjkPbuMrMrDX5HpajdUHcDzVNDhacXYnNIeIut9A42VX4zSEOMNde/Us3K56Nv8iIFoEFZ1WyY6UvmU6+KRg3y4OrzMLmd+LLslusAmd9qYEZJ5RRTPAPSnTtDBH0ykSCCm/9q49w/L5jZWhhzIxg9s7FMWgNuPa3Q0dkPBVWjvlIFVUN9qKw8/dbHQSYMK8Eq12gZX0g7sTYsy2YKHPQVAz3RA9KOdgLu1Pkwm80MfnoUooNdpdIVaMdT6WVtx/pS+Qb7URrr0ShET+C1qHvIHTvCtG2KcjYme6i0cU5EE3T3NidYtxwYb5htQtcfNOYom4O0b45wGM/ak84sYE/xaI5BUf87WihzfGJohRrXtIElhqnuBJGRAoZo6doZlohkd9iFbjg+tGMn1OcpA/7Zd54uJcX7+2O24w6hkHgY6SRkJYL4oOmCXkFCbqdKzK0bQyw7T0fJZVWqhsdBd+ULB75FUndr819Ps2w829oKjwpEh2Qoiqrnh/kyV/uoXV9IEXMhyuBFaa9IbNwPy1obSr/SwKhWYC+9jCP391B7VgHx15c80EX8mJBoWz5qyo5UbIw+5q3LvPyxt979KRyKMA1wKOmviWzdG8daAUCp5Oi72hgWGbLUi8ta/1U1NtTNgsuFLzxcK+h/JtswlNuKYrwMCpsWebl8bs7WPPiUPxQ7P7worWe+pvZl5LNmOIGNJ3NP6Mjey7kl7VOdkXQU8I3ICUSiMoLNr49okd3Ju+IhBR6doX06uS/jRYh/E9WTMQc3fOdxMmrcJVa+NDn6hk/11Mcu4sxvHRfN6teGCyoazrv2kZTcvhzhZBPZvULQ7z9aF+8zMt30ar7stYlJFdxxRHidPyQIipblnoZ6opQWW8vihTmoe4oz/2hM1nGYF7Q2xpm3hkVBb9Tq6qwa5VWK7DxzYRvql/HVvzsBQVydL8iWqhzQrKDmqa5mX+mJpZaiJ1QFFnlH3e00rElWJCkOuYjVSy5YlRBXpt/WGLz2yOsen4oVeKeDEyL8aXoiU/MSXlIz4FWu8CEeSVMWVTKpAUlWZUdN+rQ6ui8lz8IcPG3mpg4vzBCm97+KNve87FlmZeOLQG9b8k/AV/IwVDlFL/BoBTE3uLwo86pzOsGzfJnBng1cReOgoHNIfLRbzelVb1lFla/OMT614bp3BE0GqxYhpbhm/XdwVznDjyHtvN2Ajr3EFQFVFVlwVmVuPJRFK3Csif7ef2h3qJwGhVZZetSL/WT8lf5FhiWWP3ikFHR4L+iSVPmZEs8H0kzbwOPAC5gZrIJ4Km0csbVdZx+dX1eGj5EggpP/3oPK58bpJggSyqb3tayN5umu3MuG1LZoOkXOdwW9mwNoijJlhWejwU+foGW65UrqzCvKAXORusDNTUu+SuszDypjPFzPdRPdOXM3t/yrpdX/9qdTMyoKNDQ7OKMq+uy2qJnPyd2UKJ9S5Bdq3xsftebqOwyBNwIPI622ZkPd6ggcC1aI7SUcJVaKB9lo3yUDU+5ptnjLrNS2WBj9FR3xj2jdq3xs/Q//bRvCnCoQBBgxonlHPORqowlXwLDMnu2BRnpjRLwygS9Er4BieGeKEPdUb31xf8BLspzHKAgUAVsi/03bUxdXMpHrhud1sPc/M4Ia18ZOkhc6pCCABPmepi1pDzWhtPY41dklT99dSfe/oxTNU5BZ5O2Q534oMkRPkyaaRQVdTYuu22srnpeWVLp2a3VzO5a46djSzCRbsshC7tLZNxsDxPmehgz3a3p8etgQ+v6AP/5abvetIN4+B1piLweysQHuAQtt0d3m3RBhJknlXPCpbWUVluRoipSRCHsV5CiKv6h2Gu4J8JwT5TBzgi9rWE9tZ2HFRxukVHjnVTU2SgfZf/AnHSXWrDaBWxOEbtTRBAFenaFeO1vPUbzlRTgJ8B3yGIqQrESH6AW+BrwabSG0ocGsQSRBtFFneikSnR88FpTAb8q0a9E6FZC9CkhDrEp6UNLKf4ZaYo/HS7E3wsRrXD97FgEoKgS9t2ClaNslRxtrWa6tYyxFg8WHcPtUyW2yV7WRodYLvWzWfKiFudU+DPwGPAGJlVNHS7EB2gG7gHOKIYnLSKw2FbNGfYGFtursZmQ9d2rhHgu0snz4U66lFAxEX9XzJZ/tkD9/IKEDbgeuAMoeMllKyLnORq52DmGBjE7UokqKquig/wn3M670b5imgBPo+mrth0hfnIcg1ZxM7kYnuoCWxXXuCYzzpK7PKJN0gh/DG5nvTRULOQfBr4OPHCE+PGv5VrgLjTB/zReEyJjLW7GW0poEJ2UCjZKRCulgg0FFVlViaAQUmX6lDDdSoguJUSb7GdYNRabHmNxc41rCgttVXkZLBV4I9LDH4Pb6THBBLIiIqNm25/4a2z19x0hvoZy4F40CULdsAsis60VLLRWsdBWpduBPBAKKl/1rmCLNKLr+NPt9XzdPRWnkH99IL8q8dvAVl6MdCU9rkKw8yFHPY2ii/pYdKlCtOMSRKz7+CJ+VcKrSgwrETqUILtkHy2yn83yCAOKKak0W9CS0dYc7sSfi9ZZZYzeL0yzlnGefTQn20eZRr5rvMtTEt+GyOfdzVzoaKLQ8Gx4D78ObEVKECK/2jWJjzvHZfQbO2Uf70f7WRbtZ500lMm7IQh8Fvh7vsYr30vWh9BkSHSVDR1vq+Xmkpl80jmBZmspVsGchLV10hB/D+1OeoxTsPCT0nkssRdmhdNkaymzbOW8Ge1FikPJUtGW8bVXinZmWSs409HAKfY6bIJIuxwgbHw/yoaWqxNGk5k/rIh/Npq8eEqvcKa1nO94ZnGpcyzVorlBHhWV7/rW069Gkq703y+ZwzxbZUF7kPWii7nWSl6N9iAfQP5WOcAiWzU1Jo1fuWhjoa2KCxxNuAUrW2QvUWMTQECTnylFk/4+LIh/HlqGniOVDX+VayI3eqYxSsxOWu3fQy28HOlO8nQEbiuZxSJbTVGET0aJTsZZPLweObhwpk0JcKajHsFEC9cqiMyyVnCOo5GQKrNVNixkfFwsmPHKoU78hWix3aQB74mWEn5cMo8T7LWmPqh9sUoa5Gf+zUlt1Y85x3FBAdr0yTDW4sGnSmyS9/dZepQQoiAw12r+m8spWFhkq2G2rYLV0iAB1ZBy9IlomvfvHarEH4eWjpp05BfaqvhxyTxqxeztXfUqIb7lXUOQxA+oVnTyXc9sLELxidvOsVbwQqTrIAKulYaZYS2n0ZKdjbYG0cWHHA3skv10KIYyFT6E1l9h26FGfGtspZ+W7KDT7PXcWjILh5C9Siu/KvFN32o6UzyYK53jmW2roBhhFUREQeD96MHNQ96L9nO8rZYyMTtyjQ7Bwsn2OnqVMDtk3SF7Ea3Fzz/QNryyilzqdtwRs+cS4hR7HTd5ZmDNYpQ1rCrc7FvDTh0P5Fh7LcWMU+11cc3EETXKTb41ZsXlE6yoAjd6pnOpc6yhwBHarn3WF+RcrfhzgAeT/d4sawXf9czGmkWzQkLlB/71rJT0FY9/ztWc1evJNpyChTeiPQzF2ZX2qRLLpQFOtddhz9LbVQCOslUxqEaMOL1jgd5s2/u5WPFFtBTVhO/VetHF90pmZ+0BAMio3OnfwDsGEry8apRiR7Lw5S7Zx+2+dYTV7LYwusY9haOMpXb8EGgsduJfjpZ4lmBVEPiGZxplQvbkwRVU7vJv4o2IMUGoTTpTGAoZkRTyZWukQb7jW0s4i2KgVgRu88yiTn9Iugy4vZiJb0ErNUuI8x2jsxJe25f0P/Zv5OUUuSzx8FIa3ykkqKi0yKn1mVZJg9zmzy75PYKVGz3TjXhvVwETi5X4HyeBXs7e1/BnXZOyaNMrfN+/nleSbFAlwzvRvnQ2ZAoG66Rh3VmnK6ID3O5fm1WzZ761kvMcuqtJbcSRli8W4ietpr/cOT5rGY5hVeZW3zrejKQv/aeicrd/U0pzoVDxj1CLoeOXRwe4ybcGv5o9Ea2rXZMoEXSr4l1BhpIz+YjqzAV+kOjDWtHJNz3T00ojTgW/KvFt31pWS5lL/w2qETqVYFZ3kLOBVyPdhokP2u7uiugAJ5qY+bov7IJIFIU1+opobEAnmphs0az4n0r24aXOsabUpB6IfiXM9d6VplYnvRLp5i7/prhZj4WILdIIdwc2p/39bbKX670r6VOyI651sWMMpfqDGZ8sthX/9yRITbAi8k3PdNNXlBbZz42+VbQp5sv/7ZR9rJWGOMZWjUso3AbVq6VBbvGtJZihrT6sRnk92stCWxUVormqyzZBxKdKrJd0bdA2olVumarcm60Vfz5Jup8stlVTbnL4cqM0zPXelXRnUYlgrTTEZ0eWpe0sZxMyKg+FdvMt72rTbPReJcTXvStYI5mvFn2Gvd7I4ecXy4r/SZJIgnzGPYmxJhZnvxbp5nb/OqMZgek5zSi8Ge1lpTRIk8WdtXRp/Q64FpG5w7+eVyPdphtjERReifTQaHExwWJep5UK0c470T4G1Ii+eW1ytVa2iP8tEoQxRQS+7p5qyi6tCjwSauFXga0HFV5kGz0xvZuV0iBuwUKjxZUVRz0RQqrMc5FOfhrYxKPhNobU7OXdKKi8Fe3DKgjMslaYdpcBVWaFNKDn0Frgp5jYDDYb3RYE4NhEHzZbSvAImf9sRFX4WWBT3s2O9dIQ66UhSgM2TrLXsthWwwJrJY4s+AGDSoSV0gDLowMsjfbhVXOn3a+i8n/BneyU/XzDPd2U7Nl5tkq9GmsVaE1E1hUy8cfFZmhczLJWmLLa3uZbx/YC2lzyqlGeCe/hmfAebIhMsZYy3VrOJEsJ4ywemkQ3bp2TQUalWwnRLgdoVwK0ywE2SMPslH15jyu9FummXQ7w/ZLZ1GZo5k2ylOAWLHpN1PmFTvyk+fbTrZk1IV4RHeBO/wbDOji5RBSFDdIwGw6IWjgFC7WiA7dgxSNYsSEQRSWsykRVBa8qEUVhSIkmVEsoBGyXvVzrXcHtntlMy+B5WhCYYS1neXQgY14VAvGnJ41NpSmxt9ee/7/gTpQi1RMOqTJtcnY7rQgITLGW0mwpYYKlhFGik1LBikOwIKsqQVWiX43QLgdoUwKsl4bSysvvVcJc513Jl92T+bAjfVHrZkupXuJPL3TiNyf7sM5i/PXoVaPc5d9kumakANSITkaLLupFJ07BglOwIKHiU6IMqBF2y35TlMqyjdnWCs5yNLDIVk2FYCzu3iYHeDfax6uRbrYZMB+jKPwqsIX10jDXu6em5dfU6zeXJhc68RMGaB2ChXKDD2W1NMhP/BvpNWkXsVZ0cIKtlnm2SmZbK3SlQ/tUiVXRQZZJfbwd6c2pU5kKx9tqudI1gUkZhBrHWNyMsYzlUudYdsk+Hgu18XKkW7dcyMuRLnbLPm7xzDQcpq7XbwHUmzlu2Yi/vQUcH++D0aKLB8uP1XUSCZUHgjt5JNSasZ6jFYGT7XWc62hklrU8o5ybsCrzcqSbR8NttMr+vBG+yeLma+6pzM9SSne/EuaB0C6eD3fqNi3tgsjnXM1c4GjSPcJtcoCrRpbqtXYdQLRQib810WtpnMXDfWWLUp5gh+zjbv+mjFOCrYic7xjNR51jTVdskFF5KtzBX4K7GMmxo32GvZ5r3VNzkjqxU/bxi8BmQ0U5x9tqud4zTdfu/LAa5eKhN3XPd0xqD5oN4ncBdYnCV38sS1iMRURV+Ee4hb8HWzKOapxgq+Xz7ua0nWm9GFAi/DiwkZX6HLSMH9YXXZO52DkmpxNNRuWRUAt/Ce7W/VwqRTufdzWnTE3wqxLnD71hJHCyuVCJP0CC5LQpllLuKTs67pfejfbxx+B22jOMepQJNr7mnppTjUsVlQeCu3gohf5mptGa69xTOcfRSL6wQRrmDv86Q1GgRbZqvuaemjC1I6zKnDv0ut7TzcMkleVsJKnZk9nt8ZzXa70ruNW3NmPSz7ZWcG/ZopwLuwoIXOWayJfdk7OWtPAZ18S8kh40DdPflR5Ns0V/O7Jl0X6uHlnGA8GdcZPnLMZ2gE2zVy2mcwC+m+i8w2oUt2jFr0q8GOnil8EtPBpqMyVic66jke+UzDQlHSJdTLeW4xQsevNPdOM0ez1fchdGgxiPYOUUex1rpSHdz01CZa00xLPhPSixSM7e59SvhHksrLtL0ENAi1lENROXxy4up7jKNZErnOMpFPwssInnwp2mnKtWdHBv2aK8Tuh4CKgyN/vWpFXwIyAww1rGOIuHNdEhOvTXT9yHpqtfUMR3xhyPcYcz6UHb2PnSyPvsNiHc+YOSOSwuUKVmrypxrXd51nej94ECHA2sLCQb/4Zck/5K54SCIz1oevo3uKcjZriuzLNWFizpAUoFK3eWzDW8U5whX+8yY8E2g/hO4MfA93I56GfY6/mka0LBkmK6tYwzHQ0ZnePTrokUOhpEFzd5ZuSyEP804CUMtI7KBvFnxl473yKHArRTrWXc4JlW8JoHVzjH79dYzeg9zrKWUwxYaKviktzuLZwKrEVrJ5Rz4p+Clp4wPZd37BIs3OyZkTahcol60cmp9rq0vnuWvYFiwmdcExmfw16/aMUpj6JFEXNG/I8Bz8V+PKe4xjWF0aK7aAhxVhrmjohQsE3mEsGKyFfdU3L9FhbQNDZ/ZdTuTyeO/xE08X6bvh8QKBFsREworJhjreDLuR/cjDBKdPJSpAufgYzOqdYyLnSModhQL7poVwLsMhjNqhYdXOWayMec45hhLWeL7CVkTDhgEZri2n+zRfxTgMfR0XlcQOBi5xjuKpnHFa7xnGKvY7vsTXuzyoLAHSVzqBLtRUUGAWhXAmwxkHD3IXsD8wu8w2IiTLSW8mS4Q3c+bbXo4NelR3G0rZp60cUUaxlnORroVcJGJ9AiIILO9qFGiD8ZrTNdSkNujMXN90rmcI6j8YNetOWijZPtdbwZ7U0rm/Fcx+i8b9mnCxlN0k8vLnA05dpeNg1lgo32WEd0PfiWZwYzDnDiHYKFE+2jaLaWsjI6YKSP7qnAJmCDWTa+M2bepCywPMfRyB9Lj2FmnIiES7DwRVdzGvajwMeMtZQpKEyzGKtLHVekpN8LvR3Ux1jcHG9L3G7pOFsNvy5baMSnE9B2d6eZRfzfAAtS/eLVrklc756WVDNnka3GSLkZAKfb641U6hQcqkS7IeW4hjyLVGWK8RbPQat4PBxvq03pr40WXfy27Chm61fnKAEeIUU7WT3EP5MU+RE2RL7tmalrpu/ti2QEmRQzFwrG6FzFHYIlK5o8uYaecOw8ndVjpYKNH5fMM9JAZA5wWybEdwP3pCLyDZ5phuLVRsrlJlhKmJqhJEkhoELnil9aYMlo6eJE+6ikynJWBEMbdA5B5Lsls43U9N6IJlWfFvFvJ0U7ls+6JnG6MQFQ5hggvkFx0YJFqc6esgKHBkoFK9OTELsupmph9Jx3lsylUl9kzxpbtEWjxB8DfC15pKWRy5zG89IqRbtu7czFtupDggg2nZSWilQzKL4/l/jZ1aTpx9SLTm72zNS7QBxHgrSGZOy7mSQVL00WN192TUnr4gWgVnDouEmXqarK+YReQodzoPicKyRTWavLwIGfb63kXP1+33fj8TwR8ceidZ1LQFyBG9zTMhIO1aO7OLtIkrR0EV/VR/yAKhMoIN2eTNBsKU24Mme6Efl51yS92p0zgUv0Ev+6ZKv9RxyjjYSX4qJch817KDi1ezGg6t+x7s1SC5582PmJGkxn2gbKLVj5nP6OmTfpIb4d+ERi79rCJ13jMx4UPVryk0xsRJBvGOkn1Zq7iqasI9GqbBUyd+NPto+iyaJrc2secFQq4l8MJCz7Oc/RaErFjR7i1xf5Rs5eqDHZb73YKo8cMsRPtOJbTYhfiQhc5tC9o391KuJ/JnFkQuQShzmpA9YU/oGIQJXJ6mf5QpscMNSMbUsRN5U+EImK5EWTArdnOOr17opfzj67uQeyrwxYkuibi+3VCWewUaS67VLBmtPWOtnEdp0JW3uxXho6ZKI7iZ5h2CT9fysix9trdbmVwMmJiH8GSfLsl9jMK45I1QXDKogcKjDaaDqiKqzKQqfBfEBM+PzNi1wZ4OWZia7rzETfsAsix5hY8Z/qxg+V1V4F3ov2G/7eW5HeQ+L+/QkWuKCJb7R5tkq9qR5nJyL+qYm+MddaqbuHkx6kuvFD5VW/Tfam1SH8tWhPTtqXZhvDCboxmnlvFgS9oe8paHtU+xG/lCR5OVMN6CWaseKPqFLGuviFgBfSVFQLqTKvF2AjaaNINOmHTW5POkV/zcOcA4k/K5nPafZmUn8KxV0VlSElWtQPPaIqvJwBef8VbivqyS+h0i7H7+dp9ibdFKvuhXnWgcSfnezoZhNXfAlFV9fCNqW4N3JeiXbjzaBpRKvs540itvVbZX9CPf1ek/uKjdZfqDTzQOI3J/bMBapNLPLuVcK6VrLdeWy1kykUVB4OZi7s+9fQrpx3bTcLyaJZZuckGdhUnXIg8ROWRZWLNtM2HIy85g7sE1tUq32k24gKcNLJ/2S4oyjHYEWKLjE9Jpo7BjhaeSDxE1aHGKkX1QO97TNXSgNFudaFVZn7gztNO98DwZ1p9aLNJ7yqlHIvwkyVZRFBb9TxIOJXJDrSbrJcX4tOE2ZQibBFKr68lb+FdhvKzUkFvyrxs8CmoloEXo50EVGT7862KOaasjprHiqA/bZHE+YimG1jthiw3Z+PdBYV6XfIPh4NtZl+3vei/TwRbi+KMVBReVqHedZisg8nqbrSIKyAZV/i+zOcSYbsVr14NdJtVE4urybOD/0bdDdGNoo/BbezuQjegK9HenQ9YzODFwqq3gU6BEj7Ej9hSqCZ28thVabTgBngUyUeL5KV7jfBrVlt+hxRFW71r6VLCRbsGEgoPBjapevYdjlg2iLRr4T1Ls8jB9r43mQnNWvV3yb7DG/KPBJqjdsxr5Dwr1CraX2vUvk9N/vWMqQWprP71+Bu3U5rFIWtkjkp2AYWU++BxO9NZuP3meSsbUwjROlVo/w5uKNgSf9mpJc/5fD6WmU/N3hXFVykZ7M0wiOhlqzzIR4MBBP6DiT+xmRHd8jBvBEf4JlwR0Gm6r4V7eWH/g05Ty1okf1c71vJngIxe/qUMLf71xm2DMzaq9mm/82x4UDir086m00qh9sop3ejKnCnf4OpYcJM8Wqkmx/41utuc2822uUA14wsz/uCMKJG+Y5vLf1pbEily4cDYaDt6EHE34CmaJ3gxJlf4B4lmNHreVCJcKtvbd7tfRV4KLSbO/0b8i4A5VWj3ORdzUOh3XlJbRhQIlzvXcn2NMslB5QIOwxWqB0UplFlI+c4iPhBtD61CU2UTAd2WRoFGQdip+zjG95VupLcsgG/KvED/3ruD+4smA0lGZX7gzu51rsip/lNG6VhvuJdnvFvLov2ZfT95dKAXm6qwGo4uDHEeOD4RB74LGsFjZb05bofCO2k0wSbtF+NsCzaz1HWKspEW84e9MroADf51qTlp9gQGWtxM8NazjH2auZbq1hkq2aBrYrZtgqmW8upF104BJGIqqRVk9qvhHkmvIdBNcI0a7lhbUq9kFB4JNTKXf6NeE14+0ZQODuDph8Phnbp3Qx7H/glaLtY++Ip4BuJvvVapJuFBiW+P3idqDJro0OmDX6L7OfL3vf5mnsqp2VZWLZXCXFvcCevRLp0r/JCTA14sa2aWdYKplpLDXVq7FACrJeGWRkd5N1on+5MRhmVJ8MdvBTp4mxHIxc5xmQk17f/cqnydrSPPwd2mJKAtxebpBGG1WhaOWEhVTZiSTz1v+ezPyxAFwl0dUoEK4+Un5CWdOCbkV7u8K/LCjEX2qr4omuy6e1z+pQw/w638US4nbC+7XDqRCfnO5o41V5nmiJFRFV4T+rnyXAHK1NkPHLQAxVYaKviFHsdx9lq0yofHVQivBrt5olQh6mE3xdfcU/hAkeT4e89Ge7g14Eteg+fB6yJR3yA/yOJbuZX3VM4P40LvMW3xhQbP9kDPsk+ivMdTRk1RlZQWR0d5IVIF69FenRHbMZY3HzKOSGlLrwZPs5Dod28Eekx7GNYEZgSaxzdbClltOiizuLEiQWnYEFCwadKDCoRWmQ/22Ufq6RBtkrerIdrJ1pK+FPZMYaf1aeHl+oN6e5EqzlRExF/TswBiPv06kUXD5YvNvRwB5QIHx9+O2dRhzEWN8faajjaVk2zpTRpBb6KSqcSYoM0zFppiGXRPkORJ49g5SrXRM5zjDZFHUx/+G6YewJb2XoIiU/dU3Y0UwxU+r0Y6eIn/o16D79ur32fiPigdTc8JdEZbnBPM+SMPBxq4b487rzWig5GiU5KBCtOwUJUVQih0K+E2SMH084XmW+t5Jue6XpVe7MSzflXqJUHgrvytpdgJs5yNHCje7quYwOqzGdGlupVsBhBU1cY3temj7tIAx9PFsY629Goq1dTWFX4SWBjXqUyAqpMrxKmQwnSIvtpUwJ0KkGG1ShKGm8hAbjSNYEbPdMTSuTlAiICs6wVzLdVsjTaT4jiliPZKftZYh9FuY4y13uDO1gh6fZ3frOvY5uM+NuBS4G42mzhWLH4cbbU0m3/DrfxZvTQEEcCLSx5k2cGFziaCkbyapToZIl9FCulAYbU4lWmUIEhNcoSe3JltDXSIL8JbNW7ZEWAT+672muLRiK/IUUboOfCnbySQjrDp0o8HGo5ZEhvReTWklmcYqDRXa5QJzq5u3QBE4pcWv2NSA9rk6Qf9Cghvudbb8Rf/BnQcnAwJLkXPAuYkeiAZVI/R9uqqU4QtvtVYItpuRj5hojA7SWzOc5EGUWz4RQsnGSv5Z1oX1rd47OJcsFGk8XNaIubUsGKV5USmpkrpQFOsdfhPsCMHFaj3OxbYyQFuRX4GBCNZ64mQxNai/SEy0iVaOcnJfMOWmkeD7fz28DWQ2a1/7yrmUuLpLt6mxzgK97lec9pmmYt4zR7PUdbqw5q4LBXGPc/4TaWx9mbGGvxcIdnNmNi3+tXwnzLt9poesQFwBOJ/LRUuCH2ukiIUsHGHSWzmWOtYESN8lBoN/8OtR0y/fuW2Edxq2dWUV3z29Febvety8tvH2Or5hPO8bq6m4O2ufmzwKaDJqoVkUW2atyChRXSgNEEx6eBDycLUKR+y8NzaBLiSeEWrIRVuWgFkBK9ou8rX2RKF5hc48f+jbwU6cqpn3GNe0pa5uB70X5u8a01a6OsB22XtjMT4gM0AKsA07w6CwITLSWMsbhxCRYUtK3xdiVAhxwomKlzs2emoa7thQSvGuXTw0uznslqReBi51g+6RyfUWLczwObeTa8J9PLkYGzgJeSX7M+dAIXAq+SRIZED+pFFx93juMkey2lCZKSvGqU5dEB3or28k6kL2uqBakw0VLCKfZRFCtKBRuXOcfxp+D2rP1GlWjnVs+sjLtgAlzlnMhLOvR4UuBbqUifKqpzINpjE+Aj6V7RGfZ67iqdzzRrWdLNL4dgYYKlhCX2UXzYORqPYGW77CWS4wlwg2caY4q8wXSzpZTnIntMVcrYixnWcu4qmW9aCNUlWOhRQmxLPw3j78CN+iwOY9iIlrZseLvyKFsVt5fMMpzA5RQszLFWcK6jERmttlLJgSHUILr4qnsKQpF3ZrEKAn5VShobTwfnOhq5rWQWJSbLS1YIdv4bSdvcuR4tDK/LcTWCcMzWNwSHIHKDe1pGJCoVbHzR1cz95YtzEks/19FY9KTf917MFP290jWB69zTDNUX6MV0axkNYlrFTjLwnt6D07nyd4x+4Wx7I6NMSuSqF518r2QO17mn6coVShdLiti2PxC1opPpJjT2EIAvupq50jkhq9c7Nz1/YS0xsahsEf/ddFacbKxifyg9mskmtygCaLK40111ChbpVs79jygC17un8dEcbOLNsqVF/HeM3Y9xvAX6vcwG0ZW1/JExFje/KTuKM0wuPZxnreRQw3xr+sQXELjJMyOjulgjmJPeiv9mtonfhVa0q++1ld7s1e+8IfJNzwyucI437ZwTijySEw8TLZ60rHwBuNY9Jad7GY2iiypjHXiiwPPZJj4ckNucDM1ZMEXiPZyrXBO5zj3NlLK/cYcg8d2CNWEyYTJc7ZrEhx2jc369TaLbyOGvA0O5IP6Teg+sFhw5G6y9IbZMSwBzec25RJXBtItLnWP5mHNcXq7VoIzNU0bPny7x1wG6aglLxdxWKB1vq+UWz6yMwnfuLEaL8gkj1WJL7KP4nKs5j5NU9+KjGlmIMyU+wD/0HFSSh9K8E+213OCZljb17Yco8fXm0Yy1eGL7LvlDmX7evAvsziXx/6bnIFeeSHSmvSHtFatYOrAYhZ60Bbsgcrtn1kFFIPnwSXTioXTOnwnxN6NjF9efRxJd6hzLeWk4ZsECb0KRLvSosV3tnFQQzr3Ot40EPJpr4uuabcN5bl7wZddkQ1otYH67+UJBr5r8vqZay7jI2VQQ16ozXeR5tNz7nBP/YUiuaZHv2k+7IPJtz0zsBmQPzW5DWQgYUaMMJlmEBAS+4iqcpLwAut66D6V7/kyJvwd4LdkBhSB3Mcbi5hMGNrh2Sr5Djvg7U+jHn2GvNyWfxzyzLKWJ7CeNMKZZxE8563YVCIkudY49qOA5EQwIFRUNVkYTd02xInKla3xBXe9QahP5P4Avn8RPOuvMaiGUKayIfF5nlKdXCWe1bWc+8H4Swd6zHA3UF1hSno4+Ck9ncn4ziN9HkqLeFjmQV/nAfXGcrYaZOiv/U4llFRPa5EDCVj0CcJGjqeCuWYcC8up8Ex+0XOi4UFHT7o+UDejdgn82sueQUYt4NrIn4Z3Ms1YytsBykwKqnKrLZhBN5jLvxE8q4LLO5LK3TLDYVsNoHQlQA0qE1yM9RU96vyolbTx9vrPwVvut8kiq8tL1kJlCrlnEX5rsw3czbO5lJgTgTIe+/P0Hg7uKftX/V6gVb4LIWo3o4NgClETU0WHz3Ux/wyziv0gcfcK92CKNFNSm0IfsDbqS2DqUAM9krvOSN/TGWhkldGrtDVnt3pIudCyULxQK8UdIUpyiAi/nUNErFWpEh+5SvD8Ft5vSqTEf+E1gS9LAwnH22oKcrFulpJHACFr+fUEQH+DZZB8+H+ksKKNBb7liSJX5uX9zTiRNTHVow3t4J8nKWSHYmVyAkuLPJXHEY3iDDOL32SD+QySpxW2TA6yKFs7G0AJble6X/CppkHvz2MrIKDZJI/wmhVL1Ilt1wcmnKKhJHfEY/mrGb5lJ/N2kSF94LIm9mWuUCzZDYbx/hlrN0HXMOjqVILf716aUXTzGVl1w1/5SpIvu5Nr3PuDfhUZ8gPuTffhetJ8dcuHkwRjVb/lFYHNBO7s9SohveFenlNMWgAW2wlKSiKLwYHBXqsP+YYaZkw3iP0Kctiv7OrkPBncWzGAblbFQgV8GthTUm2svdsg+vu5dSZcOR7xedCUU7M0X/hVqTbXaq8CvzPo90fSJC3cnO+CdaB/rC2RDa3Ia2YgqKr8PbOMXgc15U3E+EG9Fe/m6dwU9OlvkNFsLy6ndKfv4S3B3qsP+jbZxVZDEB/gzSXJ3AO70byyIHk31ojNtRYZnwnv40sj7eU3HCKsK9wS2cYdvnSE15NHGpDuyfA8yP/JvTNWnVwV+aObvZoP4IeDWVLboz/yb8h4gtCBQKaYvJbJb9vOVkRXcG9yhq6zPLKho3QGvHlnGv8PGWy7V5akhdTz8OrCVXan9vodIQ6w4+bPPDtYAZ6I1j4uLNiWATRBMaSiQCV6IdDKopl8eqaCyXhrm2fAerIiMt3iwCWLWCL882s9dgU08Gm7Dl+ZkO9PeUBB1tY+H2/W0g/WiNXEz9dWarVJ6BfgKsCzZ5Lo/uJNa0Wm69qUROEwi6bAa5ffBbfwltIuzHA2cZq83XOubCINKhDeiPTwV7jDa9S/BPedfPmV5dIA/BLbpOfRWtEo/ioH4ACuAO5OZPSpwt38TlYI9YzXfdCGp5hpcflXisVAbj4XaaBRdLLbVMNtawSxrOZU69SAjqsIWeYS10hCrooOslYZM3TnOd37OJmmE7/rXIaW+pzeB32bjGrI9AtbYxS9OdpCm5TKbRXnYVPnU8Lt05CgXp1SwMdriolZ0UCbYcAoWbIh41ShhVaFfCbNHCdKjhM3q/hd/CfXMypv+/27Zz/XelXqCG0NonQtbskXMrC6owBVonSqqk61wt/vWcYtnJifmMHFKRaUnh1mjXjXKZinK5jybGcN5iqhtlIa5xbc2YZr0AcbAZ7JF+mxFdQ7ETrSOiZHkM0The/71/D20O2fRnlY5UDCx+FyiJQ/1xO9F+/mmb7Ue0gPcjlZMnjXkystpBXqB81IduEoapFXxs9BWZUgLJx28Eu3m/ejAYUd8FZVzcyT9rQKPhFq4W/+G39+Br2f7unLp3q9Ay9s/U8+K9EKkk7EWj25JkHTwy8CWjEKZxYoBNcKZjoasC/p61Sg/9G/giXCH3rf4C8DHYibyIUN80EoULcCSVAcGVZlXI910KkGmWctMFzF9N9pXkDk3ucTRWQwmLI32cYtvLVv072y/hNZDOSdOVz4Cuq/GPPYz0RFV2in7eDqyh5CqMN7iMUV9eUCJcKt/bVaaHhcLtss+jrfX6A6x6j+vl7sCm/hbaLcRWZkngI+i7fpzqBIftI2tFuAcPdcgobJOGuKJSDvdSohSwUat6EwrFrtT9vFt3+pUmYCHPBRU3ov2s9heQ5kJmZqbpBH+ENzGPYFtejRx9sUfgE+nCn6YjXyX4BwHPAYY3rqtF10sslUz31bJNEsZNUlybobUCKujg7wc6WZptD+rMfIDB7dKdFAnOqmN/bdMsCFA0o7gQ2qEQSXCoBphQInQoQRS5tinC4cgcoljLBc6x1BucAL0KWHejvbyfLiTrcaT9STgO8BP8kG8Qqg9awL+Dzgjk5OUCjbqRScVoh23YEFBZUCJ0KOE6c3B6m5BYKKlhMnWUiZbtH8TLSWmRaaG1Sg7ZR+7ZT9bpRFWSAOmTgYbIvNslSy0VdFsKaFRdFMm2HAIIhIKI4pEtxKiQwmwWRphozTMNtmb7hKyHfgUaTQLP5SIv/c6PoeWy194FdAJUC06OMZWzTHWao6yVea8i8hu2c9KaYB3In2skYZy9ibLACpa2voNmFRJVezE34tJwH16oj75gluwcJq9nrMdjUy2lBbMAHYpQZ4Pd/F8pFN3QUqOsQv4ApoGU0GstIWI04G7gPmFckETLCVc6GjiFHtd3vp66YGMykuRLh4I7sqJiafHFQB+hlY2WDAzUqBwIQKXxFaJJeQmvSKuOfMFVzOn2EcVnBxHMgRUmT8Et+VTGWJTzHf7Q77NmmIj/r4YB/wCLecnZ1hiH8V17ml5aVlqFh4OtXBfbjWBNgKfB94u5HEploauw2gKDrvQNr6yLhFwsXMM17unm1aoki/MtlawXfbSpgRy8XN/RauWKnj1rWJ7qn8BjiaFLHmmmG+t5Iuu5iIybJLj/Ow3fhgBLgeuROtNxRHiZ+dVugj4dbZ+4HLX+KKy51OhwuS0hAPwPrAArQNm0aBY3+NB4GvARaSQMknLoRA9HEpIoT6cLkJoO6/HFYNpc6gQfy/+A0wH/gTm7d7sKVJZ8HhQ0VoBmYx3Yqv8D8lBCvER4id2fPeGPLeYccInwu2HDPFfi3SzybwVPwDcBJyEFq4sWlg4dNCKFjd2xBzgtO+tRfYzw1pOo8VV1APSp4S51beWsDnllU+jZdM+a+bb9ciKb96K9A1gFvCvTMyDH/k30FXEqcs+VeI7vrVmSDVuBj4c+9d6qBDFwqGJ/hjx3wKmAYYLTMMovBXt5Th7TcEpC6e8dlXmFt/aTJtrtwHfREse3HKoEUTg8MDpaOJWRxv9Yp3o5O7S+QXX+TsRQqrMbf51rEy/iL4H+DkFlltzhPiZ3evpwHXAWUbuvVZ0ckfJbNMkAbOFLiXE7b616TbfWAv8Ek3lIHw4kOFwxHQ0bc/LgQo9X7Ah8nl3Mxc6mgryhtZJQ9zhW8+QMdWIaMxpvQet2PuwWgUPZzjRNsGuir0NUuIUex3XuafmvOgkERRU/hlq5f7gTiPNqDcB9wJ/i5k2hx0Od+Lvi2vQ0iBSRrqqRQefdU3idHt9Xgdwl+zj54HNRuP0TwCXHQ7mzBHi68cn0BrY6VrOZ1rLucY9Jee2/4ga5cHgLp4OdxhZ5Ymt8FdRpLutR4ifXZyPlgLt0DeAAqfa67jMOZaJWW6YPKxG+VeolSfD7UY0a/bid8C1cBiKhR4hvm6chtZassbIQB5lq+JseyPH2Wuwmbg3uFka4elwB69GuwmrhnkrAd9CC1EewRHip0QT2ibYYqNfLBNsLLJVs9hWwwJbpeENsIiqsFke4b1oP29GejLR7+8FPg68fORxHiG+ETjQit6vzeQko0UXU6xl1IlORonO/YSbFFQCqsyQGmGPHKRV8bNN8qXqAqgHbwOXkoU2Okdw+OBcYDdaGk+h/wsA3wXsRx7bEZgBN/DjmM1cqKR/BZhy5FEdQTYwH3gqFh0pFMKvQduIO4IjyDrmoBW/y3kk/Fq0Am/xyOM4glxjGlrmZ0uOyD6MVnBz8pHgxBEUAkTgFLR03rUmm0KtsbfLxwDXkaHOHEdWjOyhBjgRmAtMjv0bDyTrZ+qNRY+2A9vQksnepAhVDI4Q/wgSRYhcQDla+DGAJsp0BDnC/wPSXfmbQxNv0gAAACV0RVh0ZGF0ZTpjcmVhdGUAMjAyMy0wMy0xNFQxNDo1MDozMCswMDowMGdL6p4AAAAldEVYdGRhdGU6bW9kaWZ5ADIwMjMtMDMtMTRUMTQ6NTA6MzArMDA6MDAWFlIiAAAAAElFTkSuQmCC;" vertex="1" parent="HcRGdp-QQwa-oywtqrRt-12">
          <mxGeometry x="99.89999999999998" width="47.51" height="60" as="geometry" />
        </mxCell>
        <mxCell id="HcRGdp-QQwa-oywtqrRt-15" value="RuuviTag sensor" style="shape=image;verticalLabelPosition=bottom;labelBackgroundColor=default;verticalAlign=top;aspect=fixed;imageAspect=0;image=data:image/png,iVBORw0KGgoAAAANSUhEUgAAAeUAAAHmCAYAAABNpJbMAAAAGXRFWHRTb2Z0d2FyZQBBZG9iZSBJbWFnZVJlYWR5ccllPAAAMTZJREFUeNrsnT1YHEe2hgt0AzkymynTkDkTZLoRQyZHgkyONGR2JMg2E2S7EShaOwJFWkVAZCtiyOxIkOlGDJk2AjJtxO1vplsaIX7mp3u6zqn3fZ56kGVbmq7pqq++U6dOTQUAiJ2ZrM2V8Oe06UqAuJmiCwAmQiNvIRfYmfzXD/t+/+q/mwSdvBUcZe3imn+HoAMgygCmnGzx8/s+Z9t09qyFUJ9n7Tj/edT3EwAQZYCJMJe7Wv18lItwk265VrQLx92+xo0DAKIMMDCF8BbiW4gxjEch0Kf5rwuHDQCIMsBnAW72iS/Od/LOWuJ8jFADIMqQFjN9wrsQJp9UBYMLdfuKUAMgygAORLgQ4GYo51gR1IPE+TD/2aY7AFEGQIQBkQZAlAFuQcK7lLWniHCynOfCvB++JJMBIMoAE3LDS7kbXgrsCcO3SJT3+kQaAFEGKJFGnxtu0h0wpIuWQB/mP8nsBkQZYAQIS0MVFA4agQZEGWAAR9zK2vNAsQ5AoAFRBqhFiJdyIcYRQ90CvUNXAKIMqTHTJ8RNugMiotiDfh1IEgNEGZzTzIWYrGmwQCcX553AMStAlMGRK25l7UVgnxjsQngbEGVw4YpbdAU4QuHtV7hnALDiilezdpK1SxrNedsN5EQAQIQ0sradtTMmalqC7SSPCJEnAQC10szdAhMzjdZblG4GcicAYMLIFbxnEqbRbmyKHHHuHgAqo8iiZr+YRhu8HQT2nQGgZDFeD+wX02iIMwAgxjRa8JcUBgCAGNNoiDPEDMVDoF+Mdcb4ReBoB8Ck6GRtJVBnGwD6WMUZ02jsOQNAvbQC2dQ0WmzizFGqhCF8nSZakescZYOuAIiSnaxtBOprI8rgGq3ANwNhMgArSJi3Qu8iDECUwQkzuRi36AoAc0iQ1wLXRibBNF3gnuLWJgQZwO6iWttNKm3bpDt8c48ucIsGr5JGnmXtPt0BYJ4H+eK6kbXjQEjbJYSv/aEBq1D1El0B4BYJ8qvQK/QDOGWIFIWq3wSOVAB4R9GvZr74/r9AljZOGaKimbtjxBggTXZCLxmMkDaiDDWiBJCXuUMGgLSRIKtk5x5dgShDPe6YAiAAcJV2Ls4dusIeHImy6Y53Qy+zGkEGgOsW7Do+RQQNpwwVs5S7Y25xAgBcM04ZanTH27lDRpABANeMU4YaBxV7xwAwLnu5ayZDG6cMI6JjTuwdA0AZaPvrJFBYKGooHhInOm/8O4MHAEpGRUdUelfbYH9l7RNdEheEr+NjNXfIkOJqbG4uzMx8SRtoNBrdVhbtdvurfz46Ogrn50QzE+Uo9MLZR3QFogzfUiRz4Y4d0mw2vxLdhw8ffhbbq0JcF51Op9sKsb64uPj8exJu/R64RJXAtugGRBn65uxAMpcL4S2c7aNHj7pCW4ixFwqRVjs9Pe0KtX6NYJuHJDBEGXLWQ69UJhhBzlZN4ruwsFB6iNkqhUAfHx93w+T9zhtsrLmythwIZyPKiUK42pAAy/nqpzfnWzVF2Pvw8LD7U2LNHnb0EM5GlNOb60OvEAj2KjIkumpywLHs9bqzY5l7ljgXjprQd5QQzkaUk6GVO2SITIRxwfW5aYmz3DQiHRVkZyPK7tnORRlqoghBS4SXltg5iFWk9/b2uiKtn4S76/06AtdBIsoOUQxUlbnm6IrJI/F9+vTp5+xoMGbXMue8v7/fFWhcdG1shF5SKiDK9s1ZLshsTk5qBTQz85UQsy/sh2I/uhBpmCjsMyPK5mmFXnUuVGGCQkxYOg2KMDcCPVEUqtCxqQ5dgShbYz1w/rj6VU+rhRDDZ4F+/fr1N6VEofzuztpiIAEMUTYECV0VopD08+fPu0JMaBquohC3BPrVq1cUL6kWhbJ36AZEOWZI6KoIJWjJFUuMSdaCQVFimMSZLO7KIAEMokVC/D5rl7TyWuaGL3d3dy8BxuHs7Oxye3v7cm5ujnFVfqPuAk45SkEmw7qscMPMTFhdXcUVQ6XueWdnh84oj3boJYARjkCUa6cVyLAuZ2UzNxdevHjRDVMDVI3C2YU4s/dcznon9BLAEGZEuVZBJnQzJkrYkhhT5hLqQsJM5nYpdAI3TUFNrAb2ksZqmSO+PDk5YcMTouHg4OAyWxwyPsdrZ4FkV5zyhOHI04iwXwwm7F6nEzY2Nth3Hh3OMsNEBZnV8JAtE+PL9fX1bhYsgBUUyVFEhzE8csO84JRxyDE6Y+0ZU+gDcM5JQpERwCHH0HDGgHOm4ZhxyqWbvUCVrqHQkaaXL1+yZwyunfPKygrZ2jhmRBlBjhcdadre3kaMIRkkygprI84Ic1lM0wUI8rio6MfBwUG3IciQ2kJU7z2L0YEhL+cO7tEFCPLInTQzE/71r3+FX3/9lQkJkl+Yatvmu+++65bx/PTpE51yM7pn9TRwXApRRpDLQxnVu7u74fHjx3QGQMb9+/e7zvnZs2fh4uKiK86AMA8Le8rfIkFu0g3Xo0lnc3Oz6wwA4Ga0z7y2toY43w57zDjlW9nOV3BwNXyQh6q3trbCgwcP6BCAO9CWzs8//xympqYIaeOYEeURBblFN3yL9sp+//13QtUAI1CEtE9PT8OHDx/oEIT5VghfI8i3rvSVVcrtTQDlsLe31z3frGsj4RtUK7udeidwJApBvhYlcr1//x5BBijTEi4thZOTk+5P+IbdQIJt8k65FbgPGXcMgGuOheRvl0rZKSPIuGMAXHNcFEdSGzjlxMZD6IVKAHcMgGuOj6PcMSfXISmK8ly+EuMewXy1LkHmWkWAepEgLy8vU0c7cWFOLXzdQJB7SIQlxqrKhSADxDEmVUdbxXngs4FKrjNScsqUzyze9Lm5riBTlQsgUot4dNR1zboiEroVv1Zwyv5AkMOXZC4EGSDuhbPGKUlgXVohoWOrqVT0Upb1k5Tf6qJM5t///neGOIABdMGFKoFp7L579y717tDq5Dhr7kuipRC+Xg0J7ktcXXUTrgawC+HsLkmcYfYuyskffSK7GsCJIpGdLbQqmQ+OM7I97ynLFiZdHERZnGRXA/igyM5WXkjCNEIvP8gtXveUi0zrB6kO3jdv3nRvdwIAXzx58qRb8Ofw8DDV6yAf5OK87/HhvIavJcjNFN9W9o8B0kD7zIuLiylXAdMxqR1EOX6U1JVkfEdCrPAW4WqANJAgS5gl0Imi/WVXD+9tT7mVqiArVK1zjQgyQDoU+8wJb1W5q9DoaU9Z8do3Wbuf2lu5vr5OaT6ARNF5Zp2yuLi4CH/++Wdyjx96NSh+Q5QjWzCG3tGnRmpvpPaPE8/GBIDwJQFsf38/tUd/kGuAiworXkRZDrmZ0luosNXvv/9OGT4A+IzyShLNzH4cnFT88pDolVzFrmIfiQxrALiORDOz9bBK/OogyjUuDLP2HkEGAECYQy8Te97yA1gOXxcFQpJJNy5ujlF4CgDgNh48eNDdZ/7rr7/Cx48fk3nsYHx/2bJTVmJXMhuqnEEGgFFI9Czzctb2EOXJ0QoJ1bVGkAEAYR7ukbM2GwxeXGFRlBuht4+chEIhyACAMI9EO/SuejSFxYpeuwgyAMBwJJgk2gwGKzxaE+X10Mu4RpABABDmu9i0phmWwtfJHH9CkAGgShILZZs6JmXFKRdlNBFkAAAc87CGzkyBKSui/DIkUNcaQQYAhLkStLfctPBBLYSv1ZEH3t8YFQTh6kUAmDQKZc/OzqZQ+asTemHsqB80dqcshXJ/HllCvLu7iyADQG2OOYH5pxF6UdeoiV2U3YetqWUNAHWT0NZZ9GHsmMPX6jj3YWsNhGazyawAALXTbre7WdnO6YReta8oiflCCveXTWxvb3MfMgBEg3Jb1Pb39z0/5kxuSNuI8uCsB+eXTWxuboaff/6ZWQAAokKhbIWx37175/kxm1nTyiO667NiFOVGcH4mudVqhX/84x+MfgCIksePH4fT01PvxUV+yNrr2D5UjHvKB8HIebKRlmfNZncfGQAgdrS/rH1mx6xlbQtRvsVEBsdHoCgOAgCWSKAcZ3RXPMYkylKqk+A0uYujTwBgkU6nE+bn5z0XF9nJ2gqi/C2qTbrq9Vvn6BNYn5jVxOHh4effvxra7P/vbuPqWCiyfsXDhw8//5oxEwcJHJXSw7UR5S+4vgFKmdarq6uMbIgaOSGFKdWKJJ9BRbZqJM6KNinSVIg2gj1hO7mzE1ZWVrw+XjQ3ScUiym6Tu5RprfPIALE5X4nu8fFx1wXp1xbDkxJnCbXawsLC5+M8UA0SZYmzU6JI+opBlFvBaXIXiV0QC4XwKvSsX3u+fKBfpOWmi1A4jI/zxK8okr7qFmW3yV0SYt36xIQAdbhgCW+/C06ZItT99OnTz2FwGO/9cpz4pTBArTH6ukV5PRi4tWMUdOsTJTShDkecQO3isSgEWuOTRfNo7O3theXlZa+Pp73l2laydYpyI3fJ7lBSl5K7AOrgb3/7Wwp345aCwtwS6efPn3NccUg2NjbC+vq6y7Vt6GVj10KdZTalWnMeB7lcMkBd/Oc//wl//vknHTEAHz9+7PbVb7/91r2E4dOnT+HBgweEuAeMOChHIYbs/AoMo8791fJgdTnlZnB4LSP7yBADmiRnZ2fpiDEFR+5ZpyfgZhSR0bvmMDIjQa5lENXllLfz1Ygr3rx50y3kDlD34jCBywQqX9jIOb969aobefjhhx9wz9dw//79bt+8ffvW3TDK2mmocW950i750ltbXV29BIiFk5OTS4/jrM6WuefL3d1dXq5r0Pzn8Duv5WRQHeHrE28uWeFqha1ZSUNMJHDDT23j/eXLl4S2+3B8fnkj9E4JuRVlvcXuCoVIkMnchNjgeFT14ixhfvHiBQtyxXkzQdb5ZW/rjTDhgiKT3lPeDc4KhehIwLNnz5ihIErReP36NcejKnSHWvgoc/u///1vd2GuPdZUUdb61NSUt+iMvtD/hgleVjFJUW7lzQ0ahEruAoiZd+/e0QkVomNU/eKc8kUZTo9JKQz6m77qSfxlkwxfu9tLJmwNscPxqMmT+p6z0zKcE9tbnpRTdueSCVuDBbTXqRrYHz58oDMmhMRIx6nUdFwotboFeucUxncWoZH70rmvylcakxJlV3vJhK3BEgqvSiBgsqhamPb0tShS/YKUksH0vM7C2PdzDat8IE0ifC2H7CrjmrA1WHNuqocN9bpH1cRXWDsVHGZjTyQTexJO2ZVLJmwN5pb49+8Twq6ZIhlMzlkL+hRC2g6zsSeSiT09AZfs5u3TQNKZRABr6KpCqB+Fc3V2fG1tLYmjaooMOFuAvKjaZFYtyq5iNdvb2xQJAJOkfEwnRra2trqh3RQqrmnedIQEYNWqKLtyyboQnYkNrCK3Qh4ErrmuBaGz42GVuuUqRfm5m6VR5o43NzeZRQC3DJW5Zs+3emn+dBRlnAkVHvGtSpSbeXOBsia5Ixmsw75y3K5ZwiyB9ogE2VnmeWXJRVUdiTrwIsoS45OTE2YNcIGyYSFutFXmNX/FWURgJWs7Fpxyw5NLdpakAIlDCDt+9vb23IaznW0DVuKWqxBlNzEKTWBMYoAow6Qpwtk7Ozvu3j9FApwwV4UBLVuUK90AxyUDjMejR4/oBEOsrKx0G245HbdctiiveulppfCT3AXe4FiUPeSWPd26pHlVlRGdINtfqlCUnfXh4npGJVgouYtCIeAR1cFOoZqUNyRmu7u7LhZWev90paiT91Ap82sxOuVWcFIsREegEGTALUNMFMVGlAjmwfhonnWCtK80wShTlF0UC9HLQn1r8AzJXrYd5vLysosEMEd1sSXIpWWvlSXK6lkXI91Z5RkAcIiSvzwUGnFUUKQ0Jzcd2weqE63anNVoBfiG77//nk5wgGpmW8/MdpRQO5e3aETZhZKldAE5pAt7yn5QGNu6MOOWyxdlCbL5eC8uGQAQZtzyGCyVoYVliLKLBC9cMgAgzMy/Y1BKwte455S1vDF/WwOXTkBKtNvt7tEa8Idcp9VKhDq3rGNfxlHB8vk6nXILlwwAgGNmHu4yF8as1zGuKJsPXbOXDADehFmZ2RZdvpO95bESvsYR5WZwUMGLQiEA4A2dYbZYYMSJWx5rX3kcUTbvklUkBJcMqUFxnDRQGNuaMOtaRwfvZ2McYR5HlM1fikmNa0gRzimnJcxHR0emFoxOamI/HfV/HDX7WvbS/GXDZ2dniDIkhzJclekKaaA57uDgwMxiTPW9dZOZcXT91Wz+cyJO+an1HlPYGkGGVEUZ0kEiJ8ds5ZpEJ9uKI59Znp7kXxYTJHgBQCoohK3bpazgJOFrJPM6iiibF2RdXce+GgCkhIrGWDkqpaNRDq4YHans5iiibD50/fz5c0YoACSHjkrt7e2Z+KxOoplDm9hhRdl86JpiIQCQMlYysnU8ykExkaFN7LCibD50jSADQMpYSvxyMF8PHcIeVpQJXQMAGEdOeWNjg/l6csJciSibD107CYcAjAVHokBY2F/WfK152zgLVYlyE5cMYJ/T01M6AbpYCGM7mLcrc8qmQ9dOVlwAAKUhQY79/LKDCOdQUeZhRNl86BoAgqlayFA9Or+sUDbzd6UMHMIetPa1Km28t9wjJycn7CcDZMzPzyPM8LWVm5kJ79+/j3aOdFCvvRN6tbBLc8qmg/qq3oUgA+CU4XqKY1KxovnbeBXGRm5uSxPlpuXeoM41AIIMtxN7GNvBPD6Qjg4SvpbCn1juCa5oBOihS+9jdkRQL5ontdUX43zp4ErHdtYWy3DKpl2yEgQQZIAex8fHdALcKnyxXlqhedx4wpe09E4xGkSUFyz3wtOnTxlpADmEr+EuFE1RKJv5vDJhvpVBwtdnYYTrp2KB0DVA34CfmqIT4E6UVKVs7BidvPEQtjbt18ZxynOWBZnQNcAXYnU/EB+KqMSY9OUkhB3GEeWm5acndA3whcPDQzoBBkYXVsRYgtP4vC6j2xhHlE3vJ1PFC+ALVi63hziQIL969Yp5fcJu2a1TJnQN8PUES5IXDMv6+np0t4ppXm82m5a7dWFUUTa9n0zoGgCXDOMT473Lxuf3kZ2y6aWI8ZUUQKns7+/TCTASOiIVm1s2HsJu3GZ4p0e12DFDrWuALyh0jVMGT25Z87vxOb6ZlFMmwQvgCwgy4JajY2FYUb7VXscO+8kAXyB0DR7d8sKC6cNBN94YdVN5n1bWti0+qTLzVMULAFzcQwsREdu99MYr1E0N45QfWX1KErwAvvD69Ws6Ady6ZY/VvaaH+Y8tQOga4AvaCwQo832KaW/ZYwh7epj/GKcMYAcleMWWnAP2iSn64rGIyNQNLvnA4hNqr0N7HgAQwuLiIpdQQOnElrejW6NirNE9AFoxzw7ilHHJAMZRSU0EGapAAhjTtojheb8RrjnldJ0om03yMr6/AFAaMV4kALxfzPt3m2CcMoAztI9MghdUiSIxsVxwYnzeb7oVZQdl1wBKIcYLBAC3XJnVnJuz3I0P7xJls09n/IsBwCWDKZTdH0uClWG3fGf42qyysZ8MEMLKygqdABMhpotOPItyA6cMYBNlW5NxDZMklrrqjx49styNX4nX1XPKOp9scslxeXnJCIGkmZ+fjyb5BtJBZ5Z1drlu167zykZReGvHlVMm6xpSZ2trC0GGWoghh0GLAsOJvl99cBeiTOgaUkYugYxrqItYym4a1oFHN4myWbtpfD8BYCyU3GW0zCA4QBGaGN4/w6J8o1OesfpEOGVIFSV2xZIBC+kSwzto+ATO3E2izBllAEPInXAECmIghixs48Wj5q4T5YcIMoAdJMhczQg45S+iXHcW+BjMXCfKJpcZiDKkOgkStgaE2Y0eNK8TZbM1rwFSQu6YsDXExuHhIaJcAuYTvSivCamxvLxMtjVERwzV5B4+fGi1+xauinLT6pPglCEl5JApEgIxEsPRKMNO+do9ZUQZIGJUOYkboAC37FIP5lw4ZcprQkouhH1kiJ2695U9mDTTTtlw+jvAUIK8uLhIR4CJd7V2y2k8A7sQZZN1KjkOBd4pCoSQ2AUWiCHZy7pZK0TZ5FMYzrQDGEiQ5ZBJ7AKEeQi7aXdbc868KJPkBQgyQFzwzo5u8vtFmcIhAAgywNgcHx/X+vcbrl3xfb8omwRRBgQZIC6oxz4yn8PXuGQABBmgFOreU7aeACxRZj8ZAEEGKI0632PD2deNQpQBoEYU7kOQwdsiE9M2uiib9PpU8wIvjmJ+fh5BBldQ2Wt0zIavAayjOtZyyBQGAZwy5MyYDV9TOAQss7a2RqUucEvdkR/DyV5z/2P1k5PoBVYdhO5DjqEcIUBV1H0synKpTTnlBV4hgOqREM/OziLIgCjDraKMUwaoGIWr2T+GlKjzXTe8vdlAlAEqpMiu3traojMguXcffUhIlAFidwlyxxx3AoBh4EgUQMns7e3hjgGnzGJ0JJR9bS53nNA1xDoJyR2TyAUQwsXFBZ0wolM2B6IMMaFMU505ljtGkAHqx3LFx//h6wMYXYw3Nja6lbkA4Gs4aTASDxFlAMQYoHTYUx6JBqIMMCBK4Hr16hUhagCoDEQZ4A5XXIgxVYoAAFG+zt+T6AUVor0wCfH+/n73JwAAoowow4QdscLSCDEAIMoANbhhibAuY9dPklIAAFGG5NyomiIdk452FMJ7fHzc/YkIAwCiDEmjAhv9mcu6iFyH/HWjS3Ep+aiH/gvBlwOW8OqnhLf4fQAARBngilvt5y7HKqG+6bLyQnQBABBlgAmA6AJAanB1IwAAAKIMAAAA5kWZsCYAACDKkcDtIwAAgCgDAABAZZ4TUQYAAIiDY0QZJkZRIAQA/DNqIaAysFwwSKLc4fWBSXBTIRAAAETZsCiTfQ0AAB4h+xomBlduAqSDatpDIqIMiDIAMN4dGjeyrwEAwBe6Kc4oR2YTvdhXtsejR4/oBIBEqDP72jIS5VOTHp99ZXOQfQ0AcLcoA0wEzikDMNYnwdW72y35TbOiTPgapwwAjHVndPeUTS4pLi4u+PpYQQMA4/xbu2l4e9OsU2ZPmRU0ADDOr7WbNiOp56ZFmfC1TcjIBPDPwsICnTCCrBWi3KYvYFJQ5QfAP3UWDrFu2HDKkMxgBQD/49xyNa9+UTb3FOwp24TwNQBjvEoM3xB13C/KJm0nbtkmZGADML6r4vT01HT/mS4eglu2CSFsAL/UnTdi2Cm3+0X5EKcMOGUAGBfC1wk7ZQqI2ITjEgAsujFr3370flE2+RSG65uykgYAxnYFkH1dI9bDFKymAYBxjVELfVcom3bKiDIragCIh7q3pgxrwjeibNbvk+zF4AUAFtvC8HGoo6ui3HX+uGXAKQPAKCh0XfdFFIbD1xfXibJJjo+PGQ0G0eBlXxmAhTYm7WanzFllwC0DwEjEsCVlWJTPrxNlk0+DKNvl6dOndAKAE5aWlmr9+40fkW27EWWtjCi3adcp170HBQD2Bdm4QftKe/tF2W4ZFNyyaWEGANvEELo2nHl9oyifB6NHoxBluxDCBsApJ64DRzeJslm3TAY2gxkA6kGnKGK4+c3wnvKpO1GmBrZdtKdMCBvALs+fP0cDKnTKJoPyJHvZhhA2gF0IXVcryiR7wcRptVp0AoBBYgldG97C7IQruVxXRdlsDODw8JARYhSFsNlbBrBHDKHrrnA5uB3qJlG+9j+yAPvKtiGEDWCPGKJc2ro0XMnrcBBRJtkLJo6cMoVEAGwJcgxj1lOS102ibDY4jzDbhRA2gC1iCV0b37ocSJTNKhvJXgxyAKgeJXfFcpTRsBlTgldnEFE2q2wke9lGgzyGTE4AuJ2XL1/GoWrn524qed0myteqtwUIX9vnxYsXdAJAxMS01WR8zj8cVJS7z2oyFpCtmhBm28SSPAIA8Y9Rb/vJt4my2WQvQtiswgGgOmKKZu3t7VnuyrZ7p+zgS4IQz34VAHzrkmPJ+9DZZMPnk/XBz4cRZdPlNqmDbZuYMjsBIE6XbHyr8sYPPz3K/4RbBtwyQFpooaxa17Gwv79vuTsPRxFls5uz7Cv7mABwywAslJ065SOcMjAJAICLRbLmeMPblOfJibLxA+XQNxFQTASABfJVjEdDb9XW6XH+55h5/fo1I4nJAACcueTCKRvmcBxRNrscIYTtAx3BYG8ZgIVxgaKgho9CpeuU9aURwmZSAABfi2LjUdBb95Ndi7KDLw9yyMQGYEFcYDwKeueHnx7gDzErzISwmRwAYDRWV1ejS7R0ELq+c0t4EFE2e0KbELYvt6xQGgBUj2rQx7gQdhD9vNPkunbKTr5E6HPL3CAFkO5YMx79lEO80+ZPl/UHxQohbD8olKaQGgCkN868Z10PI8qm3TIhbH8reAqKAFTH9vZ2lJ/LQdRzoK3g6TL/sFh59eoVI41JAwDuQHeZx3rSYWdnx3LXnuOU+yCE7QtNGpo8AKA8tIcc64LXeK3roTR0UFFWb5hVNn2ZxldZcI1bJukLII0xlUroehhRFqYrgBu/exOuWdVzdhmgHBR5ijX6JFPlINo58ANMDfGHNrJ2YrlXTk5OSBJyxuLiovV7VQFqX+BqbozVJW9tbYW1tTXLXawJarEKp9wJd9TsjB3OLPuDMDbAeOzu7kY9hhwk6g4Vpp0e8g83rWrsK/tDkQ+ysQFGQ+eRY64rryiY8bPJYqjY+3SVf3hs6MslE9sfMe+HAcTK3Nxc2NzcjPozOohuDl18a1hR7gRC2BAhcsvkCwAMhsLVClvHjJNTM0MLzvQk/pKo4giZU3YQDgGDkwwAi9jBcVL0aejQ7PQk/hK+bJgEFsJxAHWjfWQL2z0OXPJE7414n7VLqy1zVZdnZ2eX4JNswrm0/H7SaFW1ZrNpYgxnTt5Df490q8f0iKJsOoRNhS//oTm5ZgD4gsLVVrZ4nOT+jBRVnhr1+w3GC4noBdWBefCJbgZTYRHj9XIBSkE5FwcHByYWqzoGpbFrnHYYomBIGU65Exwcj8It+0WTD+eXAXpYih45yfkZ2erfG+Mv/S5rpg+HXlxchFarxYh1yg8//NB1CO/evaMzIGlBfvbsmRmz9Msvv3jo9pWsfZr0X6q6bGfB+Gb8wcEBmVHOyRZeJPnQkmx69xmrE2+1hui2A9mIYAB9z0zSNAQ5Xk5OTrz0/VgR5OkxRdl8ipySCrhlyD/KOiUjG1LBYk7FxsaGh67vhDHzrcYV5XaY4OFoXgYYea/FUPYpwLiCrHfdEk7uTC7FqE6X8CHMp8rhltMRZq56hBQE2do7roxrJ8cXd8b9A6ZK+BCNYPzMstD1ZdZWlzAanGEGBDkulzw7O+thPMrZjX3Augyn3AkO6mHjlpm8AHinccljUEqO1VRJH6aZNfM2E7eMYwZAkCeHziXLJTtA5rSUB5ku6QO1g4OEL9wykxkA7/DkcJRkW9pJpKkSP5RuxDB/bx5uGccMgCDjkodktixjOl3ih9rJmv2d+swpO0nNhyEnN45LgRVUHvj9+/emozyOXPJOKDFSPFXyh9Np9Zb1HuYGqTSRU5ZjlnMGiFmQrV+24uQmqAI9SLusP2y65A/noyRLpxO2trYY/YlBgRGInc3NTRe3nzlyyUdlCnJVaEPWfP3SbIK+PDs7o2g0l1jQaFHMR5kYuxhbu7u7nr6b0iPD9yoQ5dPgIIT96dOn8N1333UTvyA9lpaWwtTUFNn4EE0E58mTJy6e58cff/SSVKmH+MnKhz3xshLSzSWQLnIncim4NVodbW5uzlXEbn193dP3s25pBdHy0vFc7Qjv37+/bDQaiARtom11ddXVOJLBcbTAPVMQw5q1d+OWtQcCaSO3wp3MNPaPR2dpacnT92Qy227dyxcgl0TSFzgMv9EiDFcrMuONg4MDb99Vw2R+Qm7xXXwJmowBigmGfWZaFeFqr4t/Z9s/ps+krXsaNCR9QX8421k4jlZjuNrzFpnD6FLDsii7csskfcFVNjc3cc20kZsWdp63xpwld6ntVi2a9yr+8z9l7bvQu9rRPKr0pTODjx8/5vAkdNG78OzZs3B8fNx9PwAGcivZPPLmzZuQuchw//59t8+5vLwcPnz44OmRfgkObkR05Zap9AW4ZhrueLDx4Oy7c3V94Lq3QQVwU7iOo1O0cMMpDiUJppJz4XCB2vQkyq7ccuDsMtwBlcBo/dG11E5vOEyCdOWSXbplwtgwiFvQMReEKe1QdWqnNpxdOOHSJbt1y4SxYRBUDIKQdlpN33cqoWrn2dbmzyUn5ZbVPJbDg2rQJE0Nbf/7xinPCU4Xnw3XJwG8uWWtCikqAsPuNyPOiLE3HGZbu3fJbt0yRUUAcUaMU9+icZrY2AiJcOLty6M2NiDOiHGq6CINh9/zZkiIlseBmmJiByDOqSVwcRzya5yeMDB5X/K4vPe4euaYFIyLJn2ytePKG2m1Wi6vVCzjXXX6va+HBGl6PZcIUAZKIJQYUISkvkW2kpdYaN/8fjp9N09Cwux6HMwayABlIVFQaNvpvh2umH3k2NpSyqLc8Dq4GdRQlTvRHh57z+VHuNgrTn4fOYpymlORHJF66e5A9sxMyCbQ7k+AKjg6OgqvX78Oe3t7XBs5wvjMhDgsLCx0fzJOB2dnZyesrKx4fbx5Da3URXkmj+G7GxVzc3Mhc8yMYkCgYwjLNRpfCTGM9p4tLi6G8/Nzl+uNrNW+2piKpDNawWnllNXV1bC5uclohokhUZY4Hx4ehna77XUCHcgNN5vNzyIsUYbR0XskQZYwe3y8rM3mPxHlHMXymx6/7e3t7dBqtRjVUAsSZgm0JlPPIi3RLURYUSo1KA8Jst4fp6xlbSuGDxKTKGsEuY31KozNJAExIHFWOz4+/izU1ihEV0JciDD7whUq1tpa2NracjskQm8vOQqmIuscxXlXPX7rmjAkzITQIFahVti7EGr9uu4wZSG0xU+Jb/HPMDmcJ3Z1gwBZi2ZlGpsoz+Ru2aVyaTI5ODhgRQ9mUKhb4qyfEmxxl7O+zbVKWG9Di1YWrnEt1ubn5z0/ouz/WkwfaCrCTlJa5K7XN0AJJ7u7u4x2AIhekB1nWnfXnCGS5K5+7kXYUR9Cb3/5B49vwYcPH8Lp6SlHMgAgXrXKhHh5edn78bqfQs1nkq2Isvgr9I5J3fe6AlWIjr0xAIhRkB0ffSrYy9pGjB8sVlFWOOG/WXvi9Y3Y399HmAEgOn755Zfwxx9/uF53ZG05RBa2LpiKvPPcnl3+/IAHB92zlQAAdaMsa2VbOyeaM8nXMR37OxLraqYstG/jPEwEAAbY2NhIQZDbMQuyBacsdG7ZdZ1KHR+RYyaUDQB1kMBZ5JAbPJ3v6iDK4+M+jE1xEQBAkCsl6rC1NVGWUqmoiOuqGxQXAQAEuRLaoVe5K3qmjXRoJ0Savl4mCRzWBwAEedJoQjXzoNOGOlZhhz2EGQAAQR6ClRD5PnI/U8Y6V3Hdk+A8jC0IZQMAC/+xkZFbtvSBp411sKkwBAMHAGJzyAnNKx2LejFtsKO18tlK4Y1CmAGgTEFWyDqh+cRknYtpo52tpK8kKm4gzABQliAnhDSibfGDTxnudFXa0PnlJDZddX5ZVz5SYAQAEORbkRgvWv3wU8Y7v5W17VTeNCp/AQCCfCsmqnbdxrT1dy5vabxtaVypBgAlsLa2lpogC1PHn67jnoMv4TD0rnh8kMIb9+nTp/D27dvw4MEDHDMAXK9MmRj/+uuvqT22EoBfWX8ID6L8KWt/Ze1Z1u6nIszcxwwAV1E07aeffgr//ve/U3v0dtZ+8vAg95x8IR+z9p+sLaX0FkqYLy4uwpMnT5iNABDk7vZWu91O7tGz9r+5QUOUI0IbrcrEfpzS2/jnn3+G09PTsLS0FAAgTYqjkx8+fEjx8X/MmpsHn3L4Bek2qeRiupTlBEgTOePl5eVUaxmYuI5xGKYdfkk6n5bc26mV8vz8PJnZAAmRWNnMbx4/OKzu6FGUz4Phg+Pj0Ol0ugN0b28vAIBvlGGd4JGnzz4kd8nuuOf0C1Pi12lILPFLFEempqamQrPZZOYC8OY6Mlf8448/prz4LgqEuAwP3HP8xSWZ+FWgfabj4+NuZvb9+/cDADiY1PKErsS3qZRp3fH6cNPOvzyFN5JdTmolzQAG8EGxf6xtqoRZCc4vI5rmS0xjZa0BDQD2ULi62D9O/LY4JXW5n8juJfBF6kD5u9C7vCLJOG5RAYxCIwD2FtU67vTHH38kHyjI2i8pPOhUQl9qUlc93tgJc3PdKyBVohMAIlahnZ3upRLcpd6NdCZz1HU6sS92Jfm3Oz/PTDgbIE4IV6cryKk55YJWSOgO5ttQac7t7W2qgAFEtGhWuDrxZK7P65NckJPKCZpO8IuWRdzife9lZ8s1J1jAHiA6NjY2uuMRQU5XkMW9RL9wJX41QoI1sr9588/Pw+vXr0kCA6gJibDcMVtKX6FrGJN0C9MJf+naX6YeZc7W1ha1swFqGndEq5ibU3fK/Y5Z9vAB4yCEjx8/ht9++40SnQATcscabzqyCF8JctIhgynege4RKR2VmqMrvqAjU0oCQ5wBynfH2j8ms/obdgInZJJ3ykLL1Lc45q/p32t+/Pgx9bMBxkRbQ7pIQuMKd4wg45QHc8zvQy8BDPo7Zmam65p1hAoAhl/gyhnLIQOCjCgPB1W/bkGhbIkz1cAABkPHDlWVi2NOCDKijDBXxvr6enjx4gVFRwBuQCKsilxkVSPIw8Ke8rd8DL2s7Gch0Qss7kITzdu3b7uirFraANBDoep//vOfVOVCkHHKOOZ6UEj75cuXZGkDKsMFEggyoowwx0Kr1eqKM/vNkBqKHClUjTNGkMtgmi64leRuKBnHJczOzuIUICkxXlxc7DYEGUHGKeOYo0V7zaurqySDgUskwFp8KrMaEGREuT4aWdsNVP5CnCFZMdZ5Yy6OQJAR5Yh0JlCSE3EGxBgQZIhKmFX565I2XMsE+XJ9ff3y7OzsEiB2Tk5OLlutFmN39LaJXOCUccyGnPPz58/J1oboUAKXnDGFP8Yi+dueoB62WQ2P1+RE5EgA6mZ7e/uy2WwyLsdvLaQBEGbjTZPh7u4uygATRVspm5ubl41Gg3E4fjvLGrfWQBSsMiDLaZocNUmy7wyT2C9WngPjrjRBZjuvBNhTLo9W7pqhBLTvrKsilbFNfW0oC2VQ6z5j9otLRUWWVvKfgChHBUVGqujUTJSVFKZSnhypgqEV4+ioK8QSZKrNVSLIVD1ElKMXZhUZadAV5SNhfvr0addFA9yExLdwxRJlqISdwBlkRNkIHJmquoMzxyyBloMmvA2fVSIT4v39fUpgVs9G1tbpBkTZGtpjbtEN1aKzznLOCHSaSIALISY8XTnq4LXAGWRE2TDKzKayDQINZalCJrxK1EKIaxFk7R+zH4Aom6cZevvMZClNWKCbzSZ70A5Q/el+IYaJQ0IXouwO2bbtwD5zbUiYFxYWukKNi46fQoT1k2StWtkJJHQhyk6ZyYUZ2xaJiy5EmhrcEVixTHglwIeHh7jheKCGNaKcBOwzI9I44VyACzFmbzgqOllbDuwfI8oJ0QzsM0eLjlwVYW4JtX5SuGSMGb7T6YpvvwhDvOulXJBZJSHK6c39uTA36QobblriXAi1/hlH/S0SXbXT09PP+8G4YDNw/hhRhnwQvKQbbFKEu9Uk1nLUKSSSSXDlgCW+Et7CDYNJznN33KYrEGXI5/ZAONuds+5vDx8+/OysJeRRz9CZsy0EViHnwgEXZ4TB1/oqEK5GlOFayM5OVLi7X/4Vh/3999/f6LjvcuO3CWchstf9twhucqg61xbdgCjD7ZCdDQBV0glkV0fJNF0QJVq5zjNgAID5BacMcbGZO2cAgHHQnrGKgVCZBVGGMWmG3l5zg64AgBHYywWZZK7IIXxtg3bohZtIyACAYd3xciC7GqcMuGYAwB0DThnXDAC4Y9yxSe7RBSb5lLV3WdOBUx1WfUCXAEDujnXvMZnVOGWo0TVv0BUASdPJxRh3bBz2lP3QCL295iZdAZAUWpRvIcaIMsTJUi7O1NAG8E079BK5OnSFHwhf+0N7SrOBRDAAr0iEFaZeRJBxymCLRiCkDeAJQtWIMjhAIe3NwNlmAKsoAraGM0aUwRfrWXsR2G8GsMJRLsZtugLAJzO5a76k0WjRtpOstZiucMqQDo2svWTgA0SF9opfBfaNEWVIlmYuzk26AgAxBoB4xPkgEDak0SbduGAGABBnGg0xBgDEmUZDjBFjAECcaTTEGAAQZxotzXYWevUBEGMAqIRGvuJnwqXR7hZjCvUAwMTEeTOffJiEaTSKfgBABMgJrOaTEZMyLdWmrZ0m0wEAxMRSYN+ZllaImoteAIDQNo1WY3ufh6jZLwYAc7RwzzQnrlgJjnMMaQDw5J7Ze6bhigFugAspoA609/w0kKUKcdLJ2l7oXRDRoTsAUYZUmMkF+nkgcxXq5TwX4v38JwBA0jRC72iVwoWETWmTarv5whAApwxwi0AXDprEGiibfkfM3cWAKAOMINALOBoYEULTgCgDVMDMFYEmIxZuotMnxG26AxBlgOqZC18yuQlz44Ylvoe5GHfoEkCUAep10c1coPWzQZe4pxDhNm4YEGWAuGnk4ryASLsS4aM+ISZJCxBlAMMiPdcn0oS74+b8igDjhAFRBnBOIc6P8p8Idf0u+Dj/eUSXAKIMAP1C3QhUGqvSAXcQYABEGWBYGn0C/RCxHohOn+ie9okv+8AAiDJAJczkrroQ7Yd9v24k8PxHfc73InxJvsL5AiDKANGKduhz1t/3/V7/v4+FflHVr4+vON8QSLoCQJQBEuA6h122624P+HsAUAP/L8AAtHJEa1GMklYAAAAASUVORK5CYII=;" vertex="1" parent="HcRGdp-QQwa-oywtqrRt-12">
          <mxGeometry y="5" width="49.9" height="50" as="geometry" />
        </mxCell>
        <mxCell id="HcRGdp-QQwa-oywtqrRt-17" value="&lt;font style=&quot;font-size: 30px;&quot;&gt;...&lt;/font&gt;" style="text;html=1;strokeColor=none;fillColor=none;align=center;verticalAlign=middle;whiteSpace=wrap;rounded=0;" vertex="1" parent="HcRGdp-QQwa-oywtqrRt-7">
          <mxGeometry x="90" y="230" width="60" height="30" as="geometry" />
        </mxCell>
        <mxCell id="HcRGdp-QQwa-oywtqrRt-21" value="read" style="edgeStyle=orthogonalEdgeStyle;rounded=0;orthogonalLoop=1;jettySize=auto;html=1;entryX=0.5;entryY=0;entryDx=0;entryDy=0;entryPerimeter=0;exitX=1;exitY=0.5;exitDx=0;exitDy=0;exitPerimeter=0;" edge="1" parent="1" source="HcRGdp-QQwa-oywtqrRt-2" target="HcRGdp-QQwa-oywtqrRt-1">
          <mxGeometry relative="1" as="geometry">
            <mxPoint x="150" y="210" as="sourcePoint" />
            <Array as="points">
              <mxPoint x="370" y="117" />
              <mxPoint x="370" y="197" />
              <mxPoint x="299" y="197" />
            </Array>
          </mxGeometry>
        </mxCell>
        <mxCell id="HcRGdp-QQwa-oywtqrRt-22" value="write" style="rounded=0;orthogonalLoop=1;jettySize=auto;html=1;exitX=0;exitY=0.5;exitDx=0;exitDy=0;entryX=1;entryY=0.5;entryDx=0;entryDy=0;entryPerimeter=0;" edge="1" parent="1" source="HcRGdp-QQwa-oywtqrRt-7" target="HcRGdp-QQwa-oywtqrRt-1">
          <mxGeometry relative="1" as="geometry" />
        </mxCell>
        <mxCell id="HcRGdp-QQwa-oywtqrRt-23" value="" style="outlineConnect=0;dashed=0;verticalLabelPosition=bottom;verticalAlign=top;align=center;html=1;shape=mxgraph.aws3.elastic_ip;fillColor=#F58534;gradientColor=none;" vertex="1" parent="1">
          <mxGeometry x="183.5" y="106" width="76.5" height="21" as="geometry" />
        </mxCell>
        <mxCell id="HcRGdp-QQwa-oywtqrRt-25" value="S3" style="sketch=0;points=[[0,0,0],[0.25,0,0],[0.5,0,0],[0.75,0,0],[1,0,0],[0,1,0],[0.25,1,0],[0.5,1,0],[0.75,1,0],[1,1,0],[0,0.25,0],[0,0.5,0],[0,0.75,0],[1,0.25,0],[1,0.5,0],[1,0.75,0]];outlineConnect=0;fontColor=#232F3E;fillColor=#7AA116;strokeColor=#ffffff;dashed=0;verticalLabelPosition=bottom;verticalAlign=top;align=center;html=1;fontSize=12;fontStyle=0;aspect=fixed;shape=mxgraph.aws4.resourceIcon;resIcon=mxgraph.aws4.s3;" vertex="1" parent="1">
          <mxGeometry x="110" y="229" width="80" height="80" as="geometry" />
        </mxCell>
        <mxCell id="HcRGdp-QQwa-oywtqrRt-26" value="&lt;div&gt;logs&lt;/div&gt;" style="edgeStyle=orthogonalEdgeStyle;rounded=0;orthogonalLoop=1;jettySize=auto;html=1;exitX=0;exitY=0.5;exitDx=0;exitDy=0;exitPerimeter=0;entryX=1;entryY=0.5;entryDx=0;entryDy=0;entryPerimeter=0;" edge="1" parent="1" source="HcRGdp-QQwa-oywtqrRt-1" target="HcRGdp-QQwa-oywtqrRt-25">
          <mxGeometry relative="1" as="geometry" />
        </mxCell>
      </root>
    </mxGraphModel>
  </diagram>
</mxfile>
